<?xml version="1.0" encoding="utf-8"?>
<svg xmlns="http://www.w3.org/2000/svg" xmlns:xlink="http://www.w3.org/1999/xlink" width="500" height="200" viewBox="0 0 2000 800">
<defs>
  <clipPath id="clip530">
    <rect x="0" y="0" width="2000" height="800"/>
  </clipPath>
</defs>
<path clip-path="url(#clip530)" d="M0 800 L2000 800 L2000 0 L0 0  Z" fill="#ffffff" fill-rule="evenodd" fill-opacity="1"/>
<defs>
  <clipPath id="clip531">
    <rect x="400" y="0" width="1401" height="800"/>
  </clipPath>
</defs>
<path clip-path="url(#clip530)" d="M212.436 700.496 L1952.76 700.496 L1952.76 47.2441 L212.436 47.2441  Z" fill="#ffffff" fill-rule="evenodd" fill-opacity="1"/>
<defs>
  <clipPath id="clip532">
    <rect x="212" y="47" width="1741" height="654"/>
  </clipPath>
</defs>
<polyline clip-path="url(#clip532)" style="stroke:#000000; stroke-linecap:round; stroke-linejoin:round; stroke-width:2; stroke-opacity:0.1; fill:none" points="599.174,700.496 599.174,47.2441 "/>
<polyline clip-path="url(#clip532)" style="stroke:#000000; stroke-linecap:round; stroke-linejoin:round; stroke-width:2; stroke-opacity:0.1; fill:none" points="1179.28,700.496 1179.28,47.2441 "/>
<polyline clip-path="url(#clip530)" style="stroke:#000000; stroke-linecap:round; stroke-linejoin:round; stroke-width:4; stroke-opacity:1; fill:none" points="212.436,700.496 1952.76,700.496 "/>
<polyline clip-path="url(#clip530)" style="stroke:#000000; stroke-linecap:round; stroke-linejoin:round; stroke-width:4; stroke-opacity:1; fill:none" points="599.174,700.496 599.174,681.598 "/>
<polyline clip-path="url(#clip530)" style="stroke:#000000; stroke-linecap:round; stroke-linejoin:round; stroke-width:4; stroke-opacity:1; fill:none" points="1179.28,700.496 1179.28,681.598 "/>
<path clip-path="url(#clip530)" d="M613.348 741.406 Q613.348 743.21 612.221 744.24 Q611.093 745.239 609.805 745.239 Q608.581 745.239 607.937 744.53 Q607.293 743.822 607.293 742.92 Q607.293 741.696 608.195 740.633 Q609.097 739.571 610.449 739.345 Q609.129 738.508 607.164 738.508 Q605.876 738.508 604.749 739.184 Q603.654 739.86 602.978 740.73 Q602.333 741.6 601.754 742.856 Q601.206 744.079 600.981 744.82 Q600.788 745.529 600.627 746.302 L598.372 755.319 Q597.277 759.603 597.277 761.116 Q597.277 762.984 598.179 764.24 Q599.081 765.464 600.884 765.464 Q601.593 765.464 602.398 765.271 Q603.203 765.045 604.234 764.466 Q605.296 763.854 606.23 762.952 Q607.196 762.018 608.13 760.44 Q609.064 758.862 609.676 756.833 Q609.87 756.124 610.514 756.124 Q611.319 756.124 611.319 756.769 Q611.319 757.316 610.868 758.475 Q610.449 759.603 609.515 761.084 Q608.614 762.533 607.422 763.854 Q606.23 765.142 604.459 766.044 Q602.688 766.946 600.755 766.946 Q597.986 766.946 596.15 765.464 Q594.314 763.983 593.638 761.922 Q593.477 762.211 593.251 762.598 Q593.026 762.984 592.35 763.854 Q591.705 764.691 590.965 765.335 Q590.224 765.947 589.065 766.43 Q587.937 766.946 586.714 766.946 Q585.168 766.946 583.783 766.495 Q582.43 766.044 581.464 765.013 Q580.498 763.983 580.498 762.566 Q580.498 760.988 581.561 759.893 Q582.656 758.765 584.137 758.765 Q585.071 758.765 585.812 759.313 Q586.585 759.86 586.585 761.052 Q586.585 762.372 585.683 763.371 Q584.781 764.369 583.493 764.627 Q584.813 765.464 586.778 765.464 Q588.904 765.464 590.578 763.596 Q592.253 761.728 593.058 758.604 Q595.055 751.1 595.828 747.751 Q596.601 744.369 596.601 742.92 Q596.601 741.567 596.247 740.633 Q595.892 739.699 595.28 739.281 Q594.701 738.83 594.153 738.669 Q593.638 738.508 593.058 738.508 Q592.092 738.508 590.997 738.894 Q589.934 739.281 588.646 740.183 Q587.39 741.052 586.198 742.856 Q585.007 744.659 584.202 747.139 Q584.04 747.88 583.332 747.88 Q582.559 747.848 582.559 747.203 Q582.559 746.656 582.978 745.529 Q583.429 744.369 584.33 742.92 Q585.264 741.471 586.456 740.183 Q587.68 738.862 589.451 737.96 Q591.255 737.059 593.187 737.059 Q594.057 737.059 594.894 737.252 Q595.763 737.413 596.794 737.896 Q597.857 738.379 598.791 739.442 Q599.725 740.505 600.304 742.05 Q600.691 741.31 601.206 740.601 Q601.754 739.893 602.591 739.023 Q603.461 738.121 604.652 737.606 Q605.876 737.059 607.229 737.059 Q608.549 737.059 609.837 737.413 Q611.126 737.735 612.221 738.798 Q613.348 739.828 613.348 741.406 Z" fill="#000000" fill-rule="nonzero" fill-opacity="1" /><path clip-path="url(#clip530)" d="M1181.77 750.163 Q1181.77 751.966 1180.64 752.997 Q1179.51 753.995 1178.22 753.995 Q1177 753.995 1176.35 753.287 Q1175.71 752.578 1175.71 751.677 Q1175.71 750.453 1176.61 749.39 Q1177.51 748.327 1178.87 748.102 Q1177.55 747.264 1175.58 747.264 Q1174.29 747.264 1173.17 747.941 Q1172.07 748.617 1171.4 749.487 Q1170.75 750.356 1170.17 751.612 Q1169.62 752.836 1169.4 753.577 Q1169.21 754.285 1169.04 755.058 L1166.79 764.076 Q1165.69 768.359 1165.69 769.873 Q1165.69 771.741 1166.6 772.997 Q1167.5 774.221 1169.3 774.221 Q1170.01 774.221 1170.82 774.027 Q1171.62 773.802 1172.65 773.222 Q1173.71 772.61 1174.65 771.709 Q1175.61 770.775 1176.55 769.197 Q1177.48 767.618 1178.09 765.589 Q1178.29 764.881 1178.93 764.881 Q1179.74 764.881 1179.74 765.525 Q1179.74 766.073 1179.29 767.232 Q1178.87 768.359 1177.93 769.841 Q1177.03 771.29 1175.84 772.61 Q1174.65 773.899 1172.88 774.8 Q1171.11 775.702 1169.17 775.702 Q1166.4 775.702 1164.57 774.221 Q1162.73 772.739 1162.06 770.678 Q1161.89 770.968 1161.67 771.354 Q1161.44 771.741 1160.77 772.61 Q1160.12 773.448 1159.38 774.092 Q1158.64 774.704 1157.48 775.187 Q1156.35 775.702 1155.13 775.702 Q1153.59 775.702 1152.2 775.251 Q1150.85 774.8 1149.88 773.77 Q1148.92 772.739 1148.92 771.322 Q1148.92 769.744 1149.98 768.649 Q1151.07 767.522 1152.55 767.522 Q1153.49 767.522 1154.23 768.069 Q1155 768.617 1155 769.808 Q1155 771.129 1154.1 772.127 Q1153.2 773.126 1151.91 773.383 Q1153.23 774.221 1155.2 774.221 Q1157.32 774.221 1159 772.353 Q1160.67 770.485 1161.48 767.361 Q1163.47 759.857 1164.25 756.507 Q1165.02 753.126 1165.02 751.677 Q1165.02 750.324 1164.66 749.39 Q1164.31 748.456 1163.7 748.037 Q1163.12 747.586 1162.57 747.425 Q1162.06 747.264 1161.48 747.264 Q1160.51 747.264 1159.41 747.651 Q1158.35 748.037 1157.06 748.939 Q1155.81 749.809 1154.62 751.612 Q1153.42 753.416 1152.62 755.896 Q1152.46 756.636 1151.75 756.636 Q1150.98 756.604 1150.98 755.96 Q1150.98 755.412 1151.4 754.285 Q1151.85 753.126 1152.75 751.677 Q1153.68 750.227 1154.87 748.939 Q1156.1 747.619 1157.87 746.717 Q1159.67 745.815 1161.6 745.815 Q1162.47 745.815 1163.31 746.008 Q1164.18 746.169 1165.21 746.652 Q1166.27 747.136 1167.21 748.198 Q1168.14 749.261 1168.72 750.807 Q1169.11 750.066 1169.62 749.358 Q1170.17 748.649 1171.01 747.78 Q1171.88 746.878 1173.07 746.363 Q1174.29 745.815 1175.65 745.815 Q1176.97 745.815 1178.25 746.169 Q1179.54 746.491 1180.64 747.554 Q1181.77 748.585 1181.77 750.163 Z" fill="#000000" fill-rule="nonzero" fill-opacity="1" /><path clip-path="url(#clip530)" d="M1191.5 731.161 Q1191.5 729.519 1192.49 728.843 Q1193.49 728.134 1194.56 728.134 Q1195.88 728.134 1196.71 728.939 Q1197.58 729.712 1197.58 731.161 Q1197.58 731.806 1197.52 732.16 L1195.33 752.063 L1193.81 752.063 L1191.56 732.16 Q1191.5 731.806 1191.5 731.161 Z" fill="#000000" fill-rule="nonzero" fill-opacity="1" /><polyline clip-path="url(#clip532)" style="stroke:#000000; stroke-linecap:round; stroke-linejoin:round; stroke-width:2; stroke-opacity:0.1; fill:none" points="212.436,700.496 1952.76,700.496 "/>
<polyline clip-path="url(#clip532)" style="stroke:#000000; stroke-linecap:round; stroke-linejoin:round; stroke-width:2; stroke-opacity:0.1; fill:none" points="212.436,564.402 1952.76,564.402 "/>
<polyline clip-path="url(#clip532)" style="stroke:#000000; stroke-linecap:round; stroke-linejoin:round; stroke-width:2; stroke-opacity:0.1; fill:none" points="212.436,428.308 1952.76,428.308 "/>
<polyline clip-path="url(#clip532)" style="stroke:#000000; stroke-linecap:round; stroke-linejoin:round; stroke-width:2; stroke-opacity:0.1; fill:none" points="212.436,292.214 1952.76,292.214 "/>
<polyline clip-path="url(#clip532)" style="stroke:#000000; stroke-linecap:round; stroke-linejoin:round; stroke-width:2; stroke-opacity:0.1; fill:none" points="212.436,156.119 1952.76,156.119 "/>
<polyline clip-path="url(#clip530)" style="stroke:#000000; stroke-linecap:round; stroke-linejoin:round; stroke-width:4; stroke-opacity:1; fill:none" points="212.436,700.496 212.436,47.2441 "/>
<polyline clip-path="url(#clip530)" style="stroke:#000000; stroke-linecap:round; stroke-linejoin:round; stroke-width:4; stroke-opacity:1; fill:none" points="212.436,700.496 231.334,700.496 "/>
<polyline clip-path="url(#clip530)" style="stroke:#000000; stroke-linecap:round; stroke-linejoin:round; stroke-width:4; stroke-opacity:1; fill:none" points="212.436,564.402 231.334,564.402 "/>
<polyline clip-path="url(#clip530)" style="stroke:#000000; stroke-linecap:round; stroke-linejoin:round; stroke-width:4; stroke-opacity:1; fill:none" points="212.436,428.308 231.334,428.308 "/>
<polyline clip-path="url(#clip530)" style="stroke:#000000; stroke-linecap:round; stroke-linejoin:round; stroke-width:4; stroke-opacity:1; fill:none" points="212.436,292.214 231.334,292.214 "/>
<polyline clip-path="url(#clip530)" style="stroke:#000000; stroke-linecap:round; stroke-linejoin:round; stroke-width:4; stroke-opacity:1; fill:none" points="212.436,156.119 231.334,156.119 "/>
<path clip-path="url(#clip530)" d="M64.9365 686.295 Q61.3254 686.295 59.4967 689.859 Q57.6912 693.401 57.6912 700.531 Q57.6912 707.637 59.4967 711.202 Q61.3254 714.743 64.9365 714.743 Q68.5707 714.743 70.3763 711.202 Q72.205 707.637 72.205 700.531 Q72.205 693.401 70.3763 689.859 Q68.5707 686.295 64.9365 686.295 M64.9365 682.591 Q70.7467 682.591 73.8022 687.197 Q76.8809 691.781 76.8809 700.531 Q76.8809 709.257 73.8022 713.864 Q70.7467 718.447 64.9365 718.447 Q59.1264 718.447 56.0477 713.864 Q52.9921 709.257 52.9921 700.531 Q52.9921 691.781 56.0477 687.197 Q59.1264 682.591 64.9365 682.591 Z" fill="#000000" fill-rule="nonzero" fill-opacity="1" /><path clip-path="url(#clip530)" d="M85.0984 711.896 L89.9827 711.896 L89.9827 717.776 L85.0984 717.776 L85.0984 711.896 Z" fill="#000000" fill-rule="nonzero" fill-opacity="1" /><path clip-path="url(#clip530)" d="M110.168 686.295 Q106.557 686.295 104.728 689.859 Q102.922 693.401 102.922 700.531 Q102.922 707.637 104.728 711.202 Q106.557 714.743 110.168 714.743 Q113.802 714.743 115.608 711.202 Q117.436 707.637 117.436 700.531 Q117.436 693.401 115.608 689.859 Q113.802 686.295 110.168 686.295 M110.168 682.591 Q115.978 682.591 119.033 687.197 Q122.112 691.781 122.112 700.531 Q122.112 709.257 119.033 713.864 Q115.978 718.447 110.168 718.447 Q104.358 718.447 101.279 713.864 Q98.2234 709.257 98.2234 700.531 Q98.2234 691.781 101.279 687.197 Q104.358 682.591 110.168 682.591 Z" fill="#000000" fill-rule="nonzero" fill-opacity="1" /><path clip-path="url(#clip530)" d="M140.33 686.295 Q136.719 686.295 134.89 689.859 Q133.084 693.401 133.084 700.531 Q133.084 707.637 134.89 711.202 Q136.719 714.743 140.33 714.743 Q143.964 714.743 145.769 711.202 Q147.598 707.637 147.598 700.531 Q147.598 693.401 145.769 689.859 Q143.964 686.295 140.33 686.295 M140.33 682.591 Q146.14 682.591 149.195 687.197 Q152.274 691.781 152.274 700.531 Q152.274 709.257 149.195 713.864 Q146.14 718.447 140.33 718.447 Q134.519 718.447 131.441 713.864 Q128.385 709.257 128.385 700.531 Q128.385 691.781 131.441 687.197 Q134.519 682.591 140.33 682.591 Z" fill="#000000" fill-rule="nonzero" fill-opacity="1" /><path clip-path="url(#clip530)" d="M170.491 686.295 Q166.88 686.295 165.052 689.859 Q163.246 693.401 163.246 700.531 Q163.246 707.637 165.052 711.202 Q166.88 714.743 170.491 714.743 Q174.126 714.743 175.931 711.202 Q177.76 707.637 177.76 700.531 Q177.76 693.401 175.931 689.859 Q174.126 686.295 170.491 686.295 M170.491 682.591 Q176.302 682.591 179.357 687.197 Q182.436 691.781 182.436 700.531 Q182.436 709.257 179.357 713.864 Q176.302 718.447 170.491 718.447 Q164.681 718.447 161.603 713.864 Q158.547 709.257 158.547 700.531 Q158.547 691.781 161.603 687.197 Q164.681 682.591 170.491 682.591 Z" fill="#000000" fill-rule="nonzero" fill-opacity="1" /><path clip-path="url(#clip530)" d="M65.9319 550.2 Q62.3208 550.2 60.4921 553.765 Q58.6865 557.307 58.6865 564.436 Q58.6865 571.543 60.4921 575.108 Q62.3208 578.649 65.9319 578.649 Q69.5661 578.649 71.3717 575.108 Q73.2004 571.543 73.2004 564.436 Q73.2004 557.307 71.3717 553.765 Q69.5661 550.2 65.9319 550.2 M65.9319 546.497 Q71.742 546.497 74.7976 551.103 Q77.8763 555.687 77.8763 564.436 Q77.8763 573.163 74.7976 577.77 Q71.742 582.353 65.9319 582.353 Q60.1217 582.353 57.043 577.77 Q53.9875 573.163 53.9875 564.436 Q53.9875 555.687 57.043 551.103 Q60.1217 546.497 65.9319 546.497 Z" fill="#000000" fill-rule="nonzero" fill-opacity="1" /><path clip-path="url(#clip530)" d="M86.0938 575.802 L90.978 575.802 L90.978 581.682 L86.0938 581.682 L86.0938 575.802 Z" fill="#000000" fill-rule="nonzero" fill-opacity="1" /><path clip-path="url(#clip530)" d="M111.163 550.2 Q107.552 550.2 105.723 553.765 Q103.918 557.307 103.918 564.436 Q103.918 571.543 105.723 575.108 Q107.552 578.649 111.163 578.649 Q114.797 578.649 116.603 575.108 Q118.432 571.543 118.432 564.436 Q118.432 557.307 116.603 553.765 Q114.797 550.2 111.163 550.2 M111.163 546.497 Q116.973 546.497 120.029 551.103 Q123.107 555.687 123.107 564.436 Q123.107 573.163 120.029 577.77 Q116.973 582.353 111.163 582.353 Q105.353 582.353 102.274 577.77 Q99.2187 573.163 99.2187 564.436 Q99.2187 555.687 102.274 551.103 Q105.353 546.497 111.163 546.497 Z" fill="#000000" fill-rule="nonzero" fill-opacity="1" /><path clip-path="url(#clip530)" d="M135.353 577.747 L151.672 577.747 L151.672 581.682 L129.728 581.682 L129.728 577.747 Q132.39 574.992 136.973 570.362 Q141.58 565.71 142.76 564.367 Q145.006 561.844 145.885 560.108 Q146.788 558.349 146.788 556.659 Q146.788 553.904 144.843 552.168 Q142.922 550.432 139.82 550.432 Q137.621 550.432 135.168 551.196 Q132.737 551.96 129.959 553.511 L129.959 548.788 Q132.783 547.654 135.237 547.075 Q137.691 546.497 139.728 546.497 Q145.098 546.497 148.293 549.182 Q151.487 551.867 151.487 556.358 Q151.487 558.487 150.677 560.409 Q149.89 562.307 147.783 564.899 Q147.205 565.571 144.103 568.788 Q141.001 571.983 135.353 577.747 Z" fill="#000000" fill-rule="nonzero" fill-opacity="1" /><path clip-path="url(#clip530)" d="M161.533 547.122 L179.89 547.122 L179.89 551.057 L165.816 551.057 L165.816 559.529 Q166.834 559.182 167.853 559.02 Q168.871 558.835 169.89 558.835 Q175.677 558.835 179.056 562.006 Q182.436 565.177 182.436 570.594 Q182.436 576.173 178.964 579.274 Q175.491 582.353 169.172 582.353 Q166.996 582.353 164.728 581.983 Q162.482 581.612 160.075 580.872 L160.075 576.173 Q162.158 577.307 164.38 577.862 Q166.603 578.418 169.079 578.418 Q173.084 578.418 175.422 576.311 Q177.76 574.205 177.76 570.594 Q177.76 566.983 175.422 564.876 Q173.084 562.77 169.079 562.77 Q167.204 562.77 165.329 563.186 Q163.478 563.603 161.533 564.483 L161.533 547.122 Z" fill="#000000" fill-rule="nonzero" fill-opacity="1" /><path clip-path="url(#clip530)" d="M64.9365 414.106 Q61.3254 414.106 59.4967 417.671 Q57.6912 421.213 57.6912 428.342 Q57.6912 435.449 59.4967 439.014 Q61.3254 442.555 64.9365 442.555 Q68.5707 442.555 70.3763 439.014 Q72.205 435.449 72.205 428.342 Q72.205 421.213 70.3763 417.671 Q68.5707 414.106 64.9365 414.106 M64.9365 410.403 Q70.7467 410.403 73.8022 415.009 Q76.8809 419.592 76.8809 428.342 Q76.8809 437.069 73.8022 441.676 Q70.7467 446.259 64.9365 446.259 Q59.1264 446.259 56.0477 441.676 Q52.9921 437.069 52.9921 428.342 Q52.9921 419.592 56.0477 415.009 Q59.1264 410.403 64.9365 410.403 Z" fill="#000000" fill-rule="nonzero" fill-opacity="1" /><path clip-path="url(#clip530)" d="M85.0984 439.708 L89.9827 439.708 L89.9827 445.588 L85.0984 445.588 L85.0984 439.708 Z" fill="#000000" fill-rule="nonzero" fill-opacity="1" /><path clip-path="url(#clip530)" d="M110.168 414.106 Q106.557 414.106 104.728 417.671 Q102.922 421.213 102.922 428.342 Q102.922 435.449 104.728 439.014 Q106.557 442.555 110.168 442.555 Q113.802 442.555 115.608 439.014 Q117.436 435.449 117.436 428.342 Q117.436 421.213 115.608 417.671 Q113.802 414.106 110.168 414.106 M110.168 410.403 Q115.978 410.403 119.033 415.009 Q122.112 419.592 122.112 428.342 Q122.112 437.069 119.033 441.676 Q115.978 446.259 110.168 446.259 Q104.358 446.259 101.279 441.676 Q98.2234 437.069 98.2234 428.342 Q98.2234 419.592 101.279 415.009 Q104.358 410.403 110.168 410.403 Z" fill="#000000" fill-rule="nonzero" fill-opacity="1" /><path clip-path="url(#clip530)" d="M130.376 411.028 L148.732 411.028 L148.732 414.963 L134.658 414.963 L134.658 423.435 Q135.677 423.088 136.695 422.926 Q137.714 422.741 138.732 422.741 Q144.519 422.741 147.899 425.912 Q151.279 429.083 151.279 434.5 Q151.279 440.078 147.806 443.18 Q144.334 446.259 138.015 446.259 Q135.839 446.259 133.57 445.889 Q131.325 445.518 128.918 444.777 L128.918 440.078 Q131.001 441.213 133.223 441.768 Q135.445 442.324 137.922 442.324 Q141.927 442.324 144.265 440.217 Q146.603 438.111 146.603 434.5 Q146.603 430.889 144.265 428.782 Q141.927 426.676 137.922 426.676 Q136.047 426.676 134.172 427.092 Q132.32 427.509 130.376 428.389 L130.376 411.028 Z" fill="#000000" fill-rule="nonzero" fill-opacity="1" /><path clip-path="url(#clip530)" d="M170.491 414.106 Q166.88 414.106 165.052 417.671 Q163.246 421.213 163.246 428.342 Q163.246 435.449 165.052 439.014 Q166.88 442.555 170.491 442.555 Q174.126 442.555 175.931 439.014 Q177.76 435.449 177.76 428.342 Q177.76 421.213 175.931 417.671 Q174.126 414.106 170.491 414.106 M170.491 410.403 Q176.302 410.403 179.357 415.009 Q182.436 419.592 182.436 428.342 Q182.436 437.069 179.357 441.676 Q176.302 446.259 170.491 446.259 Q164.681 446.259 161.603 441.676 Q158.547 437.069 158.547 428.342 Q158.547 419.592 161.603 415.009 Q164.681 410.403 170.491 410.403 Z" fill="#000000" fill-rule="nonzero" fill-opacity="1" /><path clip-path="url(#clip530)" d="M65.9319 278.012 Q62.3208 278.012 60.4921 281.577 Q58.6865 285.119 58.6865 292.248 Q58.6865 299.355 60.4921 302.919 Q62.3208 306.461 65.9319 306.461 Q69.5661 306.461 71.3717 302.919 Q73.2004 299.355 73.2004 292.248 Q73.2004 285.119 71.3717 281.577 Q69.5661 278.012 65.9319 278.012 M65.9319 274.309 Q71.742 274.309 74.7976 278.915 Q77.8763 283.498 77.8763 292.248 Q77.8763 300.975 74.7976 305.581 Q71.742 310.165 65.9319 310.165 Q60.1217 310.165 57.043 305.581 Q53.9875 300.975 53.9875 292.248 Q53.9875 283.498 57.043 278.915 Q60.1217 274.309 65.9319 274.309 Z" fill="#000000" fill-rule="nonzero" fill-opacity="1" /><path clip-path="url(#clip530)" d="M86.0938 303.614 L90.978 303.614 L90.978 309.494 L86.0938 309.494 L86.0938 303.614 Z" fill="#000000" fill-rule="nonzero" fill-opacity="1" /><path clip-path="url(#clip530)" d="M111.163 278.012 Q107.552 278.012 105.723 281.577 Q103.918 285.119 103.918 292.248 Q103.918 299.355 105.723 302.919 Q107.552 306.461 111.163 306.461 Q114.797 306.461 116.603 302.919 Q118.432 299.355 118.432 292.248 Q118.432 285.119 116.603 281.577 Q114.797 278.012 111.163 278.012 M111.163 274.309 Q116.973 274.309 120.029 278.915 Q123.107 283.498 123.107 292.248 Q123.107 300.975 120.029 305.581 Q116.973 310.165 111.163 310.165 Q105.353 310.165 102.274 305.581 Q99.2187 300.975 99.2187 292.248 Q99.2187 283.498 102.274 278.915 Q105.353 274.309 111.163 274.309 Z" fill="#000000" fill-rule="nonzero" fill-opacity="1" /><path clip-path="url(#clip530)" d="M130.144 274.934 L152.367 274.934 L152.367 276.924 L139.82 309.494 L134.936 309.494 L146.742 278.869 L130.144 278.869 L130.144 274.934 Z" fill="#000000" fill-rule="nonzero" fill-opacity="1" /><path clip-path="url(#clip530)" d="M161.533 274.934 L179.89 274.934 L179.89 278.869 L165.816 278.869 L165.816 287.341 Q166.834 286.994 167.853 286.832 Q168.871 286.646 169.89 286.646 Q175.677 286.646 179.056 289.818 Q182.436 292.989 182.436 298.406 Q182.436 303.984 178.964 307.086 Q175.491 310.165 169.172 310.165 Q166.996 310.165 164.728 309.794 Q162.482 309.424 160.075 308.683 L160.075 303.984 Q162.158 305.119 164.38 305.674 Q166.603 306.23 169.079 306.23 Q173.084 306.23 175.422 304.123 Q177.76 302.017 177.76 298.406 Q177.76 294.795 175.422 292.688 Q173.084 290.582 169.079 290.582 Q167.204 290.582 165.329 290.998 Q163.478 291.415 161.533 292.295 L161.533 274.934 Z" fill="#000000" fill-rule="nonzero" fill-opacity="1" /><path clip-path="url(#clip530)" d="M64.9365 141.918 Q61.3254 141.918 59.4967 145.483 Q57.6912 149.025 57.6912 156.154 Q57.6912 163.261 59.4967 166.825 Q61.3254 170.367 64.9365 170.367 Q68.5707 170.367 70.3763 166.825 Q72.205 163.261 72.205 156.154 Q72.205 149.025 70.3763 145.483 Q68.5707 141.918 64.9365 141.918 M64.9365 138.214 Q70.7467 138.214 73.8022 142.821 Q76.8809 147.404 76.8809 156.154 Q76.8809 164.881 73.8022 169.487 Q70.7467 174.071 64.9365 174.071 Q59.1264 174.071 56.0477 169.487 Q52.9921 164.881 52.9921 156.154 Q52.9921 147.404 56.0477 142.821 Q59.1264 138.214 64.9365 138.214 Z" fill="#000000" fill-rule="nonzero" fill-opacity="1" /><path clip-path="url(#clip530)" d="M85.0984 167.52 L89.9827 167.52 L89.9827 173.399 L85.0984 173.399 L85.0984 167.52 Z" fill="#000000" fill-rule="nonzero" fill-opacity="1" /><path clip-path="url(#clip530)" d="M100.978 169.464 L108.617 169.464 L108.617 143.099 L100.307 144.765 L100.307 140.506 L108.571 138.839 L113.246 138.839 L113.246 169.464 L120.885 169.464 L120.885 173.399 L100.978 173.399 L100.978 169.464 Z" fill="#000000" fill-rule="nonzero" fill-opacity="1" /><path clip-path="url(#clip530)" d="M140.33 141.918 Q136.719 141.918 134.89 145.483 Q133.084 149.025 133.084 156.154 Q133.084 163.261 134.89 166.825 Q136.719 170.367 140.33 170.367 Q143.964 170.367 145.769 166.825 Q147.598 163.261 147.598 156.154 Q147.598 149.025 145.769 145.483 Q143.964 141.918 140.33 141.918 M140.33 138.214 Q146.14 138.214 149.195 142.821 Q152.274 147.404 152.274 156.154 Q152.274 164.881 149.195 169.487 Q146.14 174.071 140.33 174.071 Q134.519 174.071 131.441 169.487 Q128.385 164.881 128.385 156.154 Q128.385 147.404 131.441 142.821 Q134.519 138.214 140.33 138.214 Z" fill="#000000" fill-rule="nonzero" fill-opacity="1" /><path clip-path="url(#clip530)" d="M170.491 141.918 Q166.88 141.918 165.052 145.483 Q163.246 149.025 163.246 156.154 Q163.246 163.261 165.052 166.825 Q166.88 170.367 170.491 170.367 Q174.126 170.367 175.931 166.825 Q177.76 163.261 177.76 156.154 Q177.76 149.025 175.931 145.483 Q174.126 141.918 170.491 141.918 M170.491 138.214 Q176.302 138.214 179.357 142.821 Q182.436 147.404 182.436 156.154 Q182.436 164.881 179.357 169.487 Q176.302 174.071 170.491 174.071 Q164.681 174.071 161.603 169.487 Q158.547 164.881 158.547 156.154 Q158.547 147.404 161.603 142.821 Q164.681 138.214 170.491 138.214 Z" fill="#000000" fill-rule="nonzero" fill-opacity="1" /><polyline clip-path="url(#clip532)" style="stroke:#009af9; stroke-linecap:round; stroke-linejoin:round; stroke-width:4; stroke-opacity:1; fill:none" points="212.436,261.419 230.015,274.72 247.594,287.997 265.173,301.227 282.752,314.388 300.331,327.457 317.91,340.415 335.489,353.242 353.068,365.919 370.647,378.429 388.226,390.756 405.805,402.885 423.384,414.801 440.963,426.492 458.542,437.946 476.121,449.151 493.7,460.1 511.279,470.782 528.858,481.192 546.437,491.321 564.016,501.166 581.595,510.722 599.174,519.986 616.753,528.955 634.332,537.628 651.911,546.004 669.49,554.085 687.069,561.869 704.648,569.361 722.227,576.561 739.806,583.474 757.385,590.102 774.964,596.451 792.543,602.524 810.122,608.328 827.701,613.868 845.28,619.149 862.859,624.178 880.438,628.962 898.016,633.508 915.595,637.823 933.174,641.913 950.753,645.787 968.332,649.451 985.911,652.914 1003.49,656.182 1021.07,659.264 1038.65,662.167 1056.23,664.898 1073.81,667.465 1091.39,669.875 1108.96,672.135 1126.54,674.253 1144.12,676.234 1161.7,678.087 1179.28,679.817 1196.86,681.431 1214.44,682.935 1232.02,684.335 1249.6,685.638 1267.18,686.848 1284.75,687.971 1302.33,689.012 1319.91,689.976 1337.49,690.868 1355.07,691.693 1372.65,692.454 1390.23,693.156 1407.81,693.803 1425.39,694.399 1442.97,694.946 1460.54,695.45 1478.12,695.911 1495.7,696.335 1513.28,696.722 1530.86,697.077 1548.44,697.401 1566.02,697.697 1583.6,697.967 1601.18,698.213 1618.76,698.437 1636.33,698.641 1653.91,698.826 1671.49,698.994 1689.07,699.147 1706.65,699.285 1724.23,699.41 1741.81,699.522 1759.39,699.624 1776.97,699.716 1794.54,699.799 1812.12,699.874 1829.7,699.941 1847.28,700.002 1864.86,700.056 1882.44,700.104 1900.02,700.148 1917.6,700.187 1935.18,700.222 1952.76,700.253 "/>
<path clip-path="url(#clip532)" d="M1179.28 679.817 L1196.86 681.431 L1214.44 682.935 L1232.02 684.335 L1249.6 685.638 L1267.18 686.848 L1284.75 687.971 L1302.33 689.012 L1319.91 689.976 L1337.49 690.868 L1355.07 691.693 L1372.65 692.454 L1390.23 693.156 L1407.81 693.803 L1425.39 694.399 L1442.97 694.946 L1460.54 695.45 L1478.12 695.911 L1495.7 696.335 L1513.28 696.722 L1530.86 697.077 L1548.44 697.401 L1566.02 697.697 L1583.6 697.967 L1601.18 698.213 L1618.76 698.437 L1636.33 698.641 L1653.91 698.826 L1671.49 698.994 L1689.07 699.147 L1706.65 699.285 L1724.23 699.41 L1741.81 699.522 L1759.39 699.624 L1776.97 699.716 L1794.54 699.799 L1812.12 699.874 L1829.7 699.941 L1847.28 700.002 L1864.86 700.056 L1882.44 700.104 L1900.02 700.148 L1917.6 700.187 L1935.18 700.222 L1952.76 700.253 L1952.76 700.496 L1935.18 700.496 L1917.6 700.496 L1900.02 700.496 L1882.44 700.496 L1864.86 700.496 L1847.28 700.496 L1829.7 700.496 L1812.12 700.496 L1794.54 700.496 L1776.97 700.496 L1759.39 700.496 L1741.81 700.496 L1724.23 700.496 L1706.65 700.496 L1689.07 700.496 L1671.49 700.496 L1653.91 700.496 L1636.33 700.496 L1618.76 700.496 L1601.18 700.496 L1583.6 700.496 L1566.02 700.496 L1548.44 700.496 L1530.86 700.496 L1513.28 700.496 L1495.7 700.496 L1478.12 700.496 L1460.54 700.496 L1442.97 700.496 L1425.39 700.496 L1407.81 700.496 L1390.23 700.496 L1372.65 700.496 L1355.07 700.496 L1337.49 700.496 L1319.91 700.496 L1302.33 700.496 L1284.75 700.496 L1267.18 700.496 L1249.6 700.496 L1232.02 700.496 L1214.44 700.496 L1196.86 700.496 L1179.28 700.496  Z" fill="#ff0000" fill-rule="evenodd" fill-opacity="1"/>
<polyline clip-path="url(#clip532)" style="stroke:#e26f46; stroke-linecap:round; stroke-linejoin:round; stroke-width:4; stroke-opacity:1; fill:none" points="1179.28,679.817 1196.86,681.431 1214.44,682.935 1232.02,684.335 1249.6,685.638 1267.18,686.848 1284.75,687.971 1302.33,689.012 1319.91,689.976 1337.49,690.868 1355.07,691.693 1372.65,692.454 1390.23,693.156 1407.81,693.803 1425.39,694.399 1442.97,694.946 1460.54,695.45 1478.12,695.911 1495.7,696.335 1513.28,696.722 1530.86,697.077 1548.44,697.401 1566.02,697.697 1583.6,697.967 1601.18,698.213 1618.76,698.437 1636.33,698.641 1653.91,698.826 1671.49,698.994 1689.07,699.147 1706.65,699.285 1724.23,699.41 1741.81,699.522 1759.39,699.624 1776.97,699.716 1794.54,699.799 1812.12,699.874 1829.7,699.941 1847.28,700.002 1864.86,700.056 1882.44,700.104 1900.02,700.148 1917.6,700.187 1935.18,700.222 1952.76,700.253 "/>
<defs>
  <pattern id="pattern1" patternUnits="userSpaceOnUse" x="0" y="0" width="32" height="32">
<g transform="scale(4)"><path d="M-4,4 l8,8 M-4,-4 l16,16 M4,-4 l8,8" style="stroke:#ff0000; stroke-width:1; stroke-opacity:1"/></g></pattern>
</defs>
<path clip-path="url(#clip532)" d="M599.174 519.986 L616.753 528.955 L634.332 537.628 L651.911 546.004 L669.49 554.085 L687.069 561.869 L704.648 569.361 L722.227 576.561 L739.806 583.474 L757.385 590.102 L774.964 596.451 L792.543 602.524 L810.122 608.328 L827.701 613.868 L845.28 619.149 L862.859 624.178 L880.438 628.962 L898.016 633.508 L915.595 637.823 L933.174 641.913 L950.753 645.787 L968.332 649.451 L985.911 652.914 L1003.49 656.182 L1021.07 659.264 L1038.65 662.167 L1056.23 664.898 L1073.81 667.465 L1091.39 669.875 L1108.96 672.135 L1126.54 674.253 L1144.12 676.234 L1161.7 678.087 L1179.28 679.817 L1179.28 700.496 L1161.7 700.496 L1144.12 700.496 L1126.54 700.496 L1108.96 700.496 L1091.39 700.496 L1073.81 700.496 L1056.23 700.496 L1038.65 700.496 L1021.07 700.496 L1003.49 700.496 L985.911 700.496 L968.332 700.496 L950.753 700.496 L933.174 700.496 L915.595 700.496 L898.016 700.496 L880.438 700.496 L862.859 700.496 L845.28 700.496 L827.701 700.496 L810.122 700.496 L792.543 700.496 L774.964 700.496 L757.385 700.496 L739.806 700.496 L722.227 700.496 L704.648 700.496 L687.069 700.496 L669.49 700.496 L651.911 700.496 L634.332 700.496 L616.753 700.496 L599.174 700.496  Z" fill="url(#pattern1)"/>
<polyline clip-path="url(#clip532)" style="stroke:#ff0000; stroke-linecap:round; stroke-linejoin:round; stroke-width:4; stroke-opacity:1; fill:none" points="599.174,519.986 616.753,528.955 634.332,537.628 651.911,546.004 669.49,554.085 687.069,561.869 704.648,569.361 722.227,576.561 739.806,583.474 757.385,590.102 774.964,596.451 792.543,602.524 810.122,608.328 827.701,613.868 845.28,619.149 862.859,624.178 880.438,628.962 898.016,633.508 915.595,637.823 933.174,641.913 950.753,645.787 968.332,649.451 985.911,652.914 1003.49,656.182 1021.07,659.264 1038.65,662.167 1056.23,664.898 1073.81,667.465 1091.39,669.875 1108.96,672.135 1126.54,674.253 1144.12,676.234 1161.7,678.087 1179.28,679.817 "/>
<defs>
  <pattern id="pattern2" patternUnits="userSpaceOnUse" x="0" y="0" width="32" height="32">
<g transform="scale(4)"><path d="M-4,4 l8,-8 M4,12 l8,-8 M-4,12 l16,-16" style="stroke:#000000; stroke-width:1; stroke-opacity:1"/></g></pattern>
</defs>
<path clip-path="url(#clip532)" d="M599.174 679.817 L599.174 519.986 L1179.28 679.817 L599.174 679.817 L599.174 679.817  Z" fill="url(#pattern2)"/>
<polyline clip-path="url(#clip532)" style="stroke:#000000; stroke-linecap:round; stroke-linejoin:round; stroke-width:2; stroke-opacity:1; fill:none" points="599.174,679.817 599.174,519.986 1179.28,679.817 599.174,679.817 "/>
<path clip-path="url(#clip530)" d="M1089.35 328.219 L1894.75 328.219 L1894.75 69.0192 L1089.35 69.0192  Z" fill="#ffffff" fill-rule="evenodd" fill-opacity="1"/>
<polyline clip-path="url(#clip530)" style="stroke:#000000; stroke-linecap:round; stroke-linejoin:round; stroke-width:4; stroke-opacity:1; fill:none" points="1089.35,328.219 1894.75,328.219 1894.75,69.0192 1089.35,69.0192 1089.35,328.219 "/>
<polyline clip-path="url(#clip530)" style="stroke:#009af9; stroke-linecap:round; stroke-linejoin:round; stroke-width:4; stroke-opacity:1; fill:none" points="1108.69,120.859 1224.71,120.859 "/>
<path clip-path="url(#clip530)" d="M1244.05 103.579 L1273.28 103.579 L1273.28 107.514 L1261.01 107.514 L1261.01 138.139 L1256.31 138.139 L1256.31 107.514 L1244.05 107.514 L1244.05 103.579 Z" fill="#000000" fill-rule="nonzero" fill-opacity="1" /><path clip-path="url(#clip530)" d="M1281.55 125.107 Q1276.38 125.107 1274.39 126.287 Q1272.4 127.468 1272.4 130.315 Q1272.4 132.584 1273.88 133.926 Q1275.39 135.246 1277.96 135.246 Q1281.5 135.246 1283.63 132.746 Q1285.78 130.223 1285.78 126.056 L1285.78 125.107 L1281.55 125.107 M1290.04 123.348 L1290.04 138.139 L1285.78 138.139 L1285.78 134.204 Q1284.32 136.565 1282.15 137.699 Q1279.97 138.81 1276.82 138.81 Q1272.84 138.81 1270.48 136.588 Q1268.14 134.343 1268.14 130.593 Q1268.14 126.218 1271.06 123.996 Q1274 121.774 1279.81 121.774 L1285.78 121.774 L1285.78 121.357 Q1285.78 118.417 1283.84 116.82 Q1281.92 115.199 1278.42 115.199 Q1276.2 115.199 1274.09 115.732 Q1271.99 116.264 1270.04 117.329 L1270.04 113.394 Q1272.38 112.491 1274.58 112.051 Q1276.78 111.588 1278.86 111.588 Q1284.49 111.588 1287.26 114.505 Q1290.04 117.422 1290.04 123.348 Z" fill="#000000" fill-rule="nonzero" fill-opacity="1" /><path clip-path="url(#clip530)" d="M1298.81 112.213 L1303.07 112.213 L1303.07 138.139 L1298.81 138.139 L1298.81 112.213 M1298.81 102.121 L1303.07 102.121 L1303.07 107.514 L1298.81 107.514 L1298.81 102.121 Z" fill="#000000" fill-rule="nonzero" fill-opacity="1" /><path clip-path="url(#clip530)" d="M1311.99 102.121 L1316.24 102.121 L1316.24 138.139 L1311.99 138.139 L1311.99 102.121 Z" fill="#000000" fill-rule="nonzero" fill-opacity="1" /><path clip-path="url(#clip530)" d="M1344.35 134.25 L1344.35 148 L1340.06 148 L1340.06 112.213 L1344.35 112.213 L1344.35 116.149 Q1345.69 113.834 1347.73 112.723 Q1349.79 111.588 1352.63 111.588 Q1357.36 111.588 1360.3 115.338 Q1363.26 119.088 1363.26 125.199 Q1363.26 131.31 1360.3 135.06 Q1357.36 138.81 1352.63 138.81 Q1349.79 138.81 1347.73 137.699 Q1345.69 136.565 1344.35 134.25 M1358.84 125.199 Q1358.84 120.5 1356.89 117.838 Q1354.97 115.153 1351.59 115.153 Q1348.21 115.153 1346.27 117.838 Q1344.35 120.5 1344.35 125.199 Q1344.35 129.898 1346.27 132.584 Q1348.21 135.246 1351.59 135.246 Q1354.97 135.246 1356.89 132.584 Q1358.84 129.898 1358.84 125.199 Z" fill="#000000" fill-rule="nonzero" fill-opacity="1" /><path clip-path="url(#clip530)" d="M1385.34 116.195 Q1384.62 115.778 1383.77 115.593 Q1382.93 115.385 1381.92 115.385 Q1378.3 115.385 1376.36 117.746 Q1374.44 120.084 1374.44 124.482 L1374.44 138.139 L1370.16 138.139 L1370.16 112.213 L1374.44 112.213 L1374.44 116.241 Q1375.78 113.88 1377.93 112.746 Q1380.09 111.588 1383.17 111.588 Q1383.61 111.588 1384.14 111.658 Q1384.67 111.704 1385.32 111.82 L1385.34 116.195 Z" fill="#000000" fill-rule="nonzero" fill-opacity="1" /><path clip-path="url(#clip530)" d="M1398.81 115.199 Q1395.39 115.199 1393.4 117.885 Q1391.41 120.547 1391.41 125.199 Q1391.41 129.852 1393.37 132.537 Q1395.36 135.199 1398.81 135.199 Q1402.22 135.199 1404.21 132.514 Q1406.2 129.829 1406.2 125.199 Q1406.2 120.593 1404.21 117.908 Q1402.22 115.199 1398.81 115.199 M1398.81 111.588 Q1404.37 111.588 1407.54 115.199 Q1410.71 118.811 1410.71 125.199 Q1410.71 131.565 1407.54 135.199 Q1404.37 138.81 1398.81 138.81 Q1393.24 138.81 1390.06 135.199 Q1386.92 131.565 1386.92 125.199 Q1386.92 118.811 1390.06 115.199 Q1393.24 111.588 1398.81 111.588 Z" fill="#000000" fill-rule="nonzero" fill-opacity="1" /><path clip-path="url(#clip530)" d="M1436.38 125.199 Q1436.38 120.5 1434.44 117.838 Q1432.52 115.153 1429.14 115.153 Q1425.76 115.153 1423.81 117.838 Q1421.89 120.5 1421.89 125.199 Q1421.89 129.898 1423.81 132.584 Q1425.76 135.246 1429.14 135.246 Q1432.52 135.246 1434.44 132.584 Q1436.38 129.898 1436.38 125.199 M1421.89 116.149 Q1423.23 113.834 1425.27 112.723 Q1427.33 111.588 1430.18 111.588 Q1434.9 111.588 1437.84 115.338 Q1440.8 119.088 1440.8 125.199 Q1440.8 131.31 1437.84 135.06 Q1434.9 138.81 1430.18 138.81 Q1427.33 138.81 1425.27 137.699 Q1423.23 136.565 1421.89 134.25 L1421.89 138.139 L1417.61 138.139 L1417.61 102.121 L1421.89 102.121 L1421.89 116.149 Z" fill="#000000" fill-rule="nonzero" fill-opacity="1" /><path clip-path="url(#clip530)" d="M1459.65 125.107 Q1454.48 125.107 1452.49 126.287 Q1450.5 127.468 1450.5 130.315 Q1450.5 132.584 1451.98 133.926 Q1453.49 135.246 1456.06 135.246 Q1459.6 135.246 1461.73 132.746 Q1463.88 130.223 1463.88 126.056 L1463.88 125.107 L1459.65 125.107 M1468.14 123.348 L1468.14 138.139 L1463.88 138.139 L1463.88 134.204 Q1462.42 136.565 1460.25 137.699 Q1458.07 138.81 1454.92 138.81 Q1450.94 138.81 1448.58 136.588 Q1446.24 134.343 1446.24 130.593 Q1446.24 126.218 1449.16 123.996 Q1452.1 121.774 1457.91 121.774 L1463.88 121.774 L1463.88 121.357 Q1463.88 118.417 1461.94 116.82 Q1460.02 115.199 1456.52 115.199 Q1454.3 115.199 1452.19 115.732 Q1450.09 116.264 1448.14 117.329 L1448.14 113.394 Q1450.48 112.491 1452.68 112.051 Q1454.88 111.588 1456.96 111.588 Q1462.59 111.588 1465.36 114.505 Q1468.14 117.422 1468.14 123.348 Z" fill="#000000" fill-rule="nonzero" fill-opacity="1" /><path clip-path="url(#clip530)" d="M1495.53 125.199 Q1495.53 120.5 1493.58 117.838 Q1491.66 115.153 1488.28 115.153 Q1484.9 115.153 1482.96 117.838 Q1481.04 120.5 1481.04 125.199 Q1481.04 129.898 1482.96 132.584 Q1484.9 135.246 1488.28 135.246 Q1491.66 135.246 1493.58 132.584 Q1495.53 129.898 1495.53 125.199 M1481.04 116.149 Q1482.38 113.834 1484.42 112.723 Q1486.48 111.588 1489.32 111.588 Q1494.04 111.588 1496.98 115.338 Q1499.95 119.088 1499.95 125.199 Q1499.95 131.31 1496.98 135.06 Q1494.04 138.81 1489.32 138.81 Q1486.48 138.81 1484.42 137.699 Q1482.38 136.565 1481.04 134.25 L1481.04 138.139 L1476.75 138.139 L1476.75 102.121 L1481.04 102.121 L1481.04 116.149 Z" fill="#000000" fill-rule="nonzero" fill-opacity="1" /><path clip-path="url(#clip530)" d="M1507.01 112.213 L1511.27 112.213 L1511.27 138.139 L1507.01 138.139 L1507.01 112.213 M1507.01 102.121 L1511.27 102.121 L1511.27 107.514 L1507.01 107.514 L1507.01 102.121 Z" fill="#000000" fill-rule="nonzero" fill-opacity="1" /><path clip-path="url(#clip530)" d="M1520.18 102.121 L1524.44 102.121 L1524.44 138.139 L1520.18 138.139 L1520.18 102.121 Z" fill="#000000" fill-rule="nonzero" fill-opacity="1" /><path clip-path="url(#clip530)" d="M1533.35 112.213 L1537.61 112.213 L1537.61 138.139 L1533.35 138.139 L1533.35 112.213 M1533.35 102.121 L1537.61 102.121 L1537.61 107.514 L1533.35 107.514 L1533.35 102.121 Z" fill="#000000" fill-rule="nonzero" fill-opacity="1" /><path clip-path="url(#clip530)" d="M1550.73 104.852 L1550.73 112.213 L1559.51 112.213 L1559.51 115.524 L1550.73 115.524 L1550.73 129.598 Q1550.73 132.769 1551.59 133.672 Q1552.47 134.574 1555.13 134.574 L1559.51 134.574 L1559.51 138.139 L1555.13 138.139 Q1550.2 138.139 1548.33 136.31 Q1546.45 134.459 1546.45 129.598 L1546.45 115.524 L1543.33 115.524 L1543.33 112.213 L1546.45 112.213 L1546.45 104.852 L1550.73 104.852 Z" fill="#000000" fill-rule="nonzero" fill-opacity="1" /><path clip-path="url(#clip530)" d="M1575.9 140.547 Q1574.09 145.176 1572.38 146.588 Q1570.66 148 1567.79 148 L1564.39 148 L1564.39 144.435 L1566.89 144.435 Q1568.65 144.435 1569.62 143.602 Q1570.6 142.769 1571.78 139.667 L1572.54 137.722 L1562.05 112.213 L1566.57 112.213 L1574.67 132.491 L1582.77 112.213 L1587.28 112.213 L1575.9 140.547 Z" fill="#000000" fill-rule="nonzero" fill-opacity="1" /><path clip-path="url(#clip530)" d="M1108.69 193.435 L1224.71 193.435 L1224.71 151.963 L1108.69 151.963 L1108.69 193.435  Z" fill="#ff0000" fill-rule="evenodd" fill-opacity="1"/>
<polyline clip-path="url(#clip530)" style="stroke:#e26f46; stroke-linecap:round; stroke-linejoin:round; stroke-width:4; stroke-opacity:1; fill:none" points="1108.69,151.963 1224.71,151.963 "/>
<path clip-path="url(#clip530)" d="M1260.06 158.59 Q1254.97 158.59 1251.96 162.387 Q1248.98 166.183 1248.98 172.734 Q1248.98 179.262 1251.96 183.058 Q1254.97 186.854 1260.06 186.854 Q1265.16 186.854 1268.12 183.058 Q1271.11 179.262 1271.11 172.734 Q1271.11 166.183 1268.12 162.387 Q1265.16 158.59 1260.06 158.59 M1260.06 154.794 Q1267.33 154.794 1271.68 159.678 Q1276.04 164.539 1276.04 172.734 Q1276.04 180.905 1271.68 185.789 Q1267.33 190.65 1260.06 190.65 Q1252.77 190.65 1248.4 185.789 Q1244.05 180.928 1244.05 172.734 Q1244.05 164.539 1248.4 159.678 Q1252.77 154.794 1260.06 154.794 Z" fill="#000000" fill-rule="nonzero" fill-opacity="1" /><path clip-path="url(#clip530)" d="M1282.73 179.748 L1282.73 164.053 L1286.99 164.053 L1286.99 179.586 Q1286.99 183.266 1288.42 185.118 Q1289.86 186.947 1292.73 186.947 Q1296.18 186.947 1298.17 184.748 Q1300.18 182.549 1300.18 178.752 L1300.18 164.053 L1304.44 164.053 L1304.44 189.979 L1300.18 189.979 L1300.18 185.998 Q1298.63 188.359 1296.57 189.516 Q1294.53 190.65 1291.82 190.65 Q1287.36 190.65 1285.04 187.873 Q1282.73 185.095 1282.73 179.748 M1293.44 163.428 L1293.44 163.428 Z" fill="#000000" fill-rule="nonzero" fill-opacity="1" /><path clip-path="url(#clip530)" d="M1317.43 156.692 L1317.43 164.053 L1326.2 164.053 L1326.2 167.364 L1317.43 167.364 L1317.43 181.438 Q1317.43 184.609 1318.28 185.512 Q1319.16 186.414 1321.82 186.414 L1326.2 186.414 L1326.2 189.979 L1321.82 189.979 Q1316.89 189.979 1315.02 188.15 Q1313.14 186.299 1313.14 181.438 L1313.14 167.364 L1310.02 167.364 L1310.02 164.053 L1313.14 164.053 L1313.14 156.692 L1317.43 156.692 Z" fill="#000000" fill-rule="nonzero" fill-opacity="1" /><path clip-path="url(#clip530)" d="M1331.8 153.961 L1336.06 153.961 L1336.06 189.979 L1331.8 189.979 L1331.8 153.961 Z" fill="#000000" fill-rule="nonzero" fill-opacity="1" /><path clip-path="url(#clip530)" d="M1344.97 164.053 L1349.23 164.053 L1349.23 189.979 L1344.97 189.979 L1344.97 164.053 M1344.97 153.961 L1349.23 153.961 L1349.23 159.354 L1344.97 159.354 L1344.97 153.961 Z" fill="#000000" fill-rule="nonzero" fill-opacity="1" /><path clip-path="url(#clip530)" d="M1380.32 175.951 L1380.32 178.035 L1360.74 178.035 Q1361.01 182.433 1363.37 184.748 Q1365.76 187.039 1369.99 187.039 Q1372.45 187.039 1374.74 186.438 Q1377.05 185.836 1379.32 184.632 L1379.32 188.66 Q1377.03 189.632 1374.62 190.141 Q1372.22 190.65 1369.74 190.65 Q1363.54 190.65 1359.9 187.039 Q1356.29 183.428 1356.29 177.271 Q1356.29 170.905 1359.72 167.178 Q1363.17 163.428 1369 163.428 Q1374.23 163.428 1377.26 166.808 Q1380.32 170.164 1380.32 175.951 M1376.06 174.701 Q1376.01 171.206 1374.09 169.123 Q1372.19 167.039 1369.05 167.039 Q1365.48 167.039 1363.33 169.053 Q1361.2 171.067 1360.87 174.725 L1376.06 174.701 Z" fill="#000000" fill-rule="nonzero" fill-opacity="1" /><path clip-path="url(#clip530)" d="M1402.33 168.035 Q1401.61 167.618 1400.76 167.433 Q1399.92 167.225 1398.91 167.225 Q1395.3 167.225 1393.35 169.586 Q1391.43 171.924 1391.43 176.322 L1391.43 189.979 L1387.15 189.979 L1387.15 164.053 L1391.43 164.053 L1391.43 168.081 Q1392.77 165.72 1394.92 164.586 Q1397.08 163.428 1400.16 163.428 Q1400.6 163.428 1401.13 163.498 Q1401.66 163.544 1402.31 163.66 L1402.33 168.035 Z" fill="#000000" fill-rule="nonzero" fill-opacity="1" /><path clip-path="url(#clip530)" d="M1442.05 169.03 Q1443.65 166.16 1445.87 164.794 Q1448.1 163.428 1451.11 163.428 Q1455.16 163.428 1457.36 166.276 Q1459.55 169.1 1459.55 174.331 L1459.55 189.979 L1455.27 189.979 L1455.27 174.47 Q1455.27 170.743 1453.95 168.938 Q1452.63 167.132 1449.92 167.132 Q1446.61 167.132 1444.69 169.331 Q1442.77 171.53 1442.77 175.326 L1442.77 189.979 L1438.49 189.979 L1438.49 174.47 Q1438.49 170.72 1437.17 168.938 Q1435.85 167.132 1433.1 167.132 Q1429.83 167.132 1427.91 169.354 Q1425.99 171.553 1425.99 175.326 L1425.99 189.979 L1421.71 189.979 L1421.71 164.053 L1425.99 164.053 L1425.99 168.081 Q1427.45 165.697 1429.48 164.563 Q1431.52 163.428 1434.32 163.428 Q1437.15 163.428 1439.11 164.864 Q1441.11 166.299 1442.05 169.03 Z" fill="#000000" fill-rule="nonzero" fill-opacity="1" /><path clip-path="url(#clip530)" d="M1490.23 175.951 L1490.23 178.035 L1470.64 178.035 Q1470.92 182.433 1473.28 184.748 Q1475.67 187.039 1479.9 187.039 Q1482.35 187.039 1484.65 186.438 Q1486.96 185.836 1489.23 184.632 L1489.23 188.66 Q1486.94 189.632 1484.53 190.141 Q1482.12 190.65 1479.65 190.65 Q1473.44 190.65 1469.81 187.039 Q1466.2 183.428 1466.2 177.271 Q1466.2 170.905 1469.62 167.178 Q1473.07 163.428 1478.91 163.428 Q1484.14 163.428 1487.17 166.808 Q1490.23 170.164 1490.23 175.951 M1485.97 174.701 Q1485.92 171.206 1484 169.123 Q1482.1 167.039 1478.95 167.039 Q1475.39 167.039 1473.23 169.053 Q1471.1 171.067 1470.78 174.725 L1485.97 174.701 Z" fill="#000000" fill-rule="nonzero" fill-opacity="1" /><path clip-path="url(#clip530)" d="M1509 176.947 Q1503.84 176.947 1501.85 178.127 Q1499.85 179.308 1499.85 182.155 Q1499.85 184.424 1501.34 185.766 Q1502.84 187.086 1505.41 187.086 Q1508.95 187.086 1511.08 184.586 Q1513.23 182.063 1513.23 177.896 L1513.23 176.947 L1509 176.947 M1517.49 175.188 L1517.49 189.979 L1513.23 189.979 L1513.23 186.044 Q1511.78 188.405 1509.6 189.539 Q1507.42 190.65 1504.28 190.65 Q1500.29 190.65 1497.93 188.428 Q1495.6 186.183 1495.6 182.433 Q1495.6 178.058 1498.51 175.836 Q1501.45 173.614 1507.26 173.614 L1513.23 173.614 L1513.23 173.197 Q1513.23 170.257 1511.29 168.66 Q1509.37 167.039 1505.87 167.039 Q1503.65 167.039 1501.54 167.572 Q1499.44 168.104 1497.49 169.169 L1497.49 165.234 Q1499.83 164.331 1502.03 163.891 Q1504.23 163.428 1506.31 163.428 Q1511.94 163.428 1514.72 166.345 Q1517.49 169.262 1517.49 175.188 Z" fill="#000000" fill-rule="nonzero" fill-opacity="1" /><path clip-path="url(#clip530)" d="M1542.79 164.817 L1542.79 168.845 Q1540.99 167.919 1539.04 167.456 Q1537.1 166.993 1535.02 166.993 Q1531.85 166.993 1530.25 167.965 Q1528.67 168.938 1528.67 170.882 Q1528.67 172.364 1529.81 173.22 Q1530.94 174.053 1534.37 174.817 L1535.83 175.141 Q1540.36 176.113 1542.26 177.896 Q1544.18 179.655 1544.18 182.826 Q1544.18 186.438 1541.31 188.544 Q1538.47 190.65 1533.47 190.65 Q1531.38 190.65 1529.11 190.234 Q1526.87 189.84 1524.37 189.03 L1524.37 184.632 Q1526.73 185.859 1529.02 186.484 Q1531.31 187.086 1533.56 187.086 Q1536.57 187.086 1538.19 186.067 Q1539.81 185.025 1539.81 183.15 Q1539.81 181.414 1538.63 180.488 Q1537.47 179.563 1533.51 178.706 L1532.03 178.359 Q1528.07 177.526 1526.31 175.813 Q1524.55 174.076 1524.55 171.067 Q1524.55 167.41 1527.15 165.419 Q1529.74 163.428 1534.51 163.428 Q1536.87 163.428 1538.95 163.776 Q1541.04 164.123 1542.79 164.817 Z" fill="#000000" fill-rule="nonzero" fill-opacity="1" /><path clip-path="url(#clip530)" d="M1550.53 179.748 L1550.53 164.053 L1554.79 164.053 L1554.79 179.586 Q1554.79 183.266 1556.22 185.118 Q1557.66 186.947 1560.53 186.947 Q1563.97 186.947 1565.97 184.748 Q1567.98 182.549 1567.98 178.752 L1567.98 164.053 L1572.24 164.053 L1572.24 189.979 L1567.98 189.979 L1567.98 185.998 Q1566.43 188.359 1564.37 189.516 Q1562.33 190.65 1559.62 190.65 Q1555.16 190.65 1552.84 187.873 Q1550.53 185.095 1550.53 179.748 M1561.24 163.428 L1561.24 163.428 Z" fill="#000000" fill-rule="nonzero" fill-opacity="1" /><path clip-path="url(#clip530)" d="M1596.03 168.035 Q1595.32 167.618 1594.46 167.433 Q1593.63 167.225 1592.61 167.225 Q1589 167.225 1587.05 169.586 Q1585.13 171.924 1585.13 176.322 L1585.13 189.979 L1580.85 189.979 L1580.85 164.053 L1585.13 164.053 L1585.13 168.081 Q1586.47 165.72 1588.63 164.586 Q1590.78 163.428 1593.86 163.428 Q1594.3 163.428 1594.83 163.498 Q1595.36 163.544 1596.01 163.66 L1596.03 168.035 Z" fill="#000000" fill-rule="nonzero" fill-opacity="1" /><path clip-path="url(#clip530)" d="M1621.64 175.951 L1621.64 178.035 L1602.05 178.035 Q1602.33 182.433 1604.69 184.748 Q1607.08 187.039 1611.31 187.039 Q1613.77 187.039 1616.06 186.438 Q1618.37 185.836 1620.64 184.632 L1620.64 188.66 Q1618.35 189.632 1615.94 190.141 Q1613.53 190.65 1611.06 190.65 Q1604.85 190.65 1601.22 187.039 Q1597.61 183.428 1597.61 177.271 Q1597.61 170.905 1601.03 167.178 Q1604.48 163.428 1610.32 163.428 Q1615.55 163.428 1618.58 166.808 Q1621.64 170.164 1621.64 175.951 M1617.38 174.701 Q1617.33 171.206 1615.41 169.123 Q1613.51 167.039 1610.36 167.039 Q1606.8 167.039 1604.65 169.053 Q1602.52 171.067 1602.19 174.725 L1617.38 174.701 Z" fill="#000000" fill-rule="nonzero" fill-opacity="1" /><defs>
  <pattern id="pattern3" patternUnits="userSpaceOnUse" x="0" y="0" width="32" height="32">
<g transform="scale(4)"><path d="M-4,4 l8,8 M-4,-4 l16,16 M4,-4 l8,8" style="stroke:#ff0000; stroke-width:1; stroke-opacity:1"/></g></pattern>
</defs>
<path clip-path="url(#clip530)" d="M1108.69 245.275 L1224.71 245.275 L1224.71 203.803 L1108.69 203.803 L1108.69 245.275  Z" fill="url(#pattern3)"/>
<polyline clip-path="url(#clip530)" style="stroke:#ff0000; stroke-linecap:round; stroke-linejoin:round; stroke-width:4; stroke-opacity:1; fill:none" points="1108.69,203.803 1224.71,203.803 "/>
<path clip-path="url(#clip530)" d="M1260.06 210.43 Q1254.97 210.43 1251.96 214.227 Q1248.98 218.023 1248.98 224.574 Q1248.98 231.102 1251.96 234.898 Q1254.97 238.694 1260.06 238.694 Q1265.16 238.694 1268.12 234.898 Q1271.11 231.102 1271.11 224.574 Q1271.11 218.023 1268.12 214.227 Q1265.16 210.43 1260.06 210.43 M1260.06 206.634 Q1267.33 206.634 1271.68 211.518 Q1276.04 216.379 1276.04 224.574 Q1276.04 232.745 1271.68 237.629 Q1267.33 242.49 1260.06 242.49 Q1252.77 242.49 1248.4 237.629 Q1244.05 232.768 1244.05 224.574 Q1244.05 216.379 1248.4 211.518 Q1252.77 206.634 1260.06 206.634 Z" fill="#000000" fill-rule="nonzero" fill-opacity="1" /><path clip-path="url(#clip530)" d="M1282.73 231.588 L1282.73 215.893 L1286.99 215.893 L1286.99 231.426 Q1286.99 235.106 1288.42 236.958 Q1289.86 238.787 1292.73 238.787 Q1296.18 238.787 1298.17 236.588 Q1300.18 234.389 1300.18 230.592 L1300.18 215.893 L1304.44 215.893 L1304.44 241.819 L1300.18 241.819 L1300.18 237.838 Q1298.63 240.199 1296.57 241.356 Q1294.53 242.49 1291.82 242.49 Q1287.36 242.49 1285.04 239.713 Q1282.73 236.935 1282.73 231.588 M1293.44 215.268 L1293.44 215.268 Z" fill="#000000" fill-rule="nonzero" fill-opacity="1" /><path clip-path="url(#clip530)" d="M1317.43 208.532 L1317.43 215.893 L1326.2 215.893 L1326.2 219.204 L1317.43 219.204 L1317.43 233.278 Q1317.43 236.449 1318.28 237.352 Q1319.16 238.254 1321.82 238.254 L1326.2 238.254 L1326.2 241.819 L1321.82 241.819 Q1316.89 241.819 1315.02 239.99 Q1313.14 238.139 1313.14 233.278 L1313.14 219.204 L1310.02 219.204 L1310.02 215.893 L1313.14 215.893 L1313.14 208.532 L1317.43 208.532 Z" fill="#000000" fill-rule="nonzero" fill-opacity="1" /><path clip-path="url(#clip530)" d="M1331.8 205.801 L1336.06 205.801 L1336.06 241.819 L1331.8 241.819 L1331.8 205.801 Z" fill="#000000" fill-rule="nonzero" fill-opacity="1" /><path clip-path="url(#clip530)" d="M1344.97 215.893 L1349.23 215.893 L1349.23 241.819 L1344.97 241.819 L1344.97 215.893 M1344.97 205.801 L1349.23 205.801 L1349.23 211.194 L1344.97 211.194 L1344.97 205.801 Z" fill="#000000" fill-rule="nonzero" fill-opacity="1" /><path clip-path="url(#clip530)" d="M1380.32 227.791 L1380.32 229.875 L1360.74 229.875 Q1361.01 234.273 1363.37 236.588 Q1365.76 238.879 1369.99 238.879 Q1372.45 238.879 1374.74 238.278 Q1377.05 237.676 1379.32 236.472 L1379.32 240.5 Q1377.03 241.472 1374.62 241.981 Q1372.22 242.49 1369.74 242.49 Q1363.54 242.49 1359.9 238.879 Q1356.29 235.268 1356.29 229.111 Q1356.29 222.745 1359.72 219.018 Q1363.17 215.268 1369 215.268 Q1374.23 215.268 1377.26 218.648 Q1380.32 222.004 1380.32 227.791 M1376.06 226.541 Q1376.01 223.046 1374.09 220.963 Q1372.19 218.879 1369.05 218.879 Q1365.48 218.879 1363.33 220.893 Q1361.2 222.907 1360.87 226.565 L1376.06 226.541 Z" fill="#000000" fill-rule="nonzero" fill-opacity="1" /><path clip-path="url(#clip530)" d="M1402.33 219.875 Q1401.61 219.458 1400.76 219.273 Q1399.92 219.065 1398.91 219.065 Q1395.3 219.065 1393.35 221.426 Q1391.43 223.764 1391.43 228.162 L1391.43 241.819 L1387.15 241.819 L1387.15 215.893 L1391.43 215.893 L1391.43 219.921 Q1392.77 217.56 1394.92 216.426 Q1397.08 215.268 1400.16 215.268 Q1400.6 215.268 1401.13 215.338 Q1401.66 215.384 1402.31 215.5 L1402.33 219.875 Z" fill="#000000" fill-rule="nonzero" fill-opacity="1" /><path clip-path="url(#clip530)" d="M1442.05 220.87 Q1443.65 218 1445.87 216.634 Q1448.1 215.268 1451.11 215.268 Q1455.16 215.268 1457.36 218.116 Q1459.55 220.94 1459.55 226.171 L1459.55 241.819 L1455.27 241.819 L1455.27 226.31 Q1455.27 222.583 1453.95 220.778 Q1452.63 218.972 1449.92 218.972 Q1446.61 218.972 1444.69 221.171 Q1442.77 223.37 1442.77 227.166 L1442.77 241.819 L1438.49 241.819 L1438.49 226.31 Q1438.49 222.56 1437.17 220.778 Q1435.85 218.972 1433.1 218.972 Q1429.83 218.972 1427.91 221.194 Q1425.99 223.393 1425.99 227.166 L1425.99 241.819 L1421.71 241.819 L1421.71 215.893 L1425.99 215.893 L1425.99 219.921 Q1427.45 217.537 1429.48 216.403 Q1431.52 215.268 1434.32 215.268 Q1437.15 215.268 1439.11 216.704 Q1441.11 218.139 1442.05 220.87 Z" fill="#000000" fill-rule="nonzero" fill-opacity="1" /><path clip-path="url(#clip530)" d="M1490.23 227.791 L1490.23 229.875 L1470.64 229.875 Q1470.92 234.273 1473.28 236.588 Q1475.67 238.879 1479.9 238.879 Q1482.35 238.879 1484.65 238.278 Q1486.96 237.676 1489.23 236.472 L1489.23 240.5 Q1486.94 241.472 1484.53 241.981 Q1482.12 242.49 1479.65 242.49 Q1473.44 242.49 1469.81 238.879 Q1466.2 235.268 1466.2 229.111 Q1466.2 222.745 1469.62 219.018 Q1473.07 215.268 1478.91 215.268 Q1484.14 215.268 1487.17 218.648 Q1490.23 222.004 1490.23 227.791 M1485.97 226.541 Q1485.92 223.046 1484 220.963 Q1482.1 218.879 1478.95 218.879 Q1475.39 218.879 1473.23 220.893 Q1471.1 222.907 1470.78 226.565 L1485.97 226.541 Z" fill="#000000" fill-rule="nonzero" fill-opacity="1" /><path clip-path="url(#clip530)" d="M1509 228.787 Q1503.84 228.787 1501.85 229.967 Q1499.85 231.148 1499.85 233.995 Q1499.85 236.264 1501.34 237.606 Q1502.84 238.926 1505.41 238.926 Q1508.95 238.926 1511.08 236.426 Q1513.23 233.903 1513.23 229.736 L1513.23 228.787 L1509 228.787 M1517.49 227.028 L1517.49 241.819 L1513.23 241.819 L1513.23 237.884 Q1511.78 240.245 1509.6 241.379 Q1507.42 242.49 1504.28 242.49 Q1500.29 242.49 1497.93 240.268 Q1495.6 238.023 1495.6 234.273 Q1495.6 229.898 1498.51 227.676 Q1501.45 225.454 1507.26 225.454 L1513.23 225.454 L1513.23 225.037 Q1513.23 222.097 1511.29 220.5 Q1509.37 218.879 1505.87 218.879 Q1503.65 218.879 1501.54 219.412 Q1499.44 219.944 1497.49 221.009 L1497.49 217.074 Q1499.83 216.171 1502.03 215.731 Q1504.23 215.268 1506.31 215.268 Q1511.94 215.268 1514.72 218.185 Q1517.49 221.102 1517.49 227.028 Z" fill="#000000" fill-rule="nonzero" fill-opacity="1" /><path clip-path="url(#clip530)" d="M1542.79 216.657 L1542.79 220.685 Q1540.99 219.759 1539.04 219.296 Q1537.1 218.833 1535.02 218.833 Q1531.85 218.833 1530.25 219.805 Q1528.67 220.778 1528.67 222.722 Q1528.67 224.204 1529.81 225.06 Q1530.94 225.893 1534.37 226.657 L1535.83 226.981 Q1540.36 227.953 1542.26 229.736 Q1544.18 231.495 1544.18 234.666 Q1544.18 238.278 1541.31 240.384 Q1538.47 242.49 1533.47 242.49 Q1531.38 242.49 1529.11 242.074 Q1526.87 241.68 1524.37 240.87 L1524.37 236.472 Q1526.73 237.699 1529.02 238.324 Q1531.31 238.926 1533.56 238.926 Q1536.57 238.926 1538.19 237.907 Q1539.81 236.865 1539.81 234.99 Q1539.81 233.254 1538.63 232.328 Q1537.47 231.403 1533.51 230.546 L1532.03 230.199 Q1528.07 229.366 1526.31 227.653 Q1524.55 225.916 1524.55 222.907 Q1524.55 219.25 1527.15 217.259 Q1529.74 215.268 1534.51 215.268 Q1536.87 215.268 1538.95 215.616 Q1541.04 215.963 1542.79 216.657 Z" fill="#000000" fill-rule="nonzero" fill-opacity="1" /><path clip-path="url(#clip530)" d="M1550.53 231.588 L1550.53 215.893 L1554.79 215.893 L1554.79 231.426 Q1554.79 235.106 1556.22 236.958 Q1557.66 238.787 1560.53 238.787 Q1563.97 238.787 1565.97 236.588 Q1567.98 234.389 1567.98 230.592 L1567.98 215.893 L1572.24 215.893 L1572.24 241.819 L1567.98 241.819 L1567.98 237.838 Q1566.43 240.199 1564.37 241.356 Q1562.33 242.49 1559.62 242.49 Q1555.16 242.49 1552.84 239.713 Q1550.53 236.935 1550.53 231.588 M1561.24 215.268 L1561.24 215.268 Z" fill="#000000" fill-rule="nonzero" fill-opacity="1" /><path clip-path="url(#clip530)" d="M1596.03 219.875 Q1595.32 219.458 1594.46 219.273 Q1593.63 219.065 1592.61 219.065 Q1589 219.065 1587.05 221.426 Q1585.13 223.764 1585.13 228.162 L1585.13 241.819 L1580.85 241.819 L1580.85 215.893 L1585.13 215.893 L1585.13 219.921 Q1586.47 217.56 1588.63 216.426 Q1590.78 215.268 1593.86 215.268 Q1594.3 215.268 1594.83 215.338 Q1595.36 215.384 1596.01 215.5 L1596.03 219.875 Z" fill="#000000" fill-rule="nonzero" fill-opacity="1" /><path clip-path="url(#clip530)" d="M1621.64 227.791 L1621.64 229.875 L1602.05 229.875 Q1602.33 234.273 1604.69 236.588 Q1607.08 238.879 1611.31 238.879 Q1613.77 238.879 1616.06 238.278 Q1618.37 237.676 1620.64 236.472 L1620.64 240.5 Q1618.35 241.472 1615.94 241.981 Q1613.53 242.49 1611.06 242.49 Q1604.85 242.49 1601.22 238.879 Q1597.61 235.268 1597.61 229.111 Q1597.61 222.745 1601.03 219.018 Q1604.48 215.268 1610.32 215.268 Q1615.55 215.268 1618.58 218.648 Q1621.64 222.004 1621.64 227.791 M1617.38 226.541 Q1617.33 223.046 1615.41 220.963 Q1613.51 218.879 1610.36 218.879 Q1606.8 218.879 1604.65 220.893 Q1602.52 222.907 1602.19 226.565 L1617.38 226.541 Z" fill="#000000" fill-rule="nonzero" fill-opacity="1" /><path clip-path="url(#clip530)" d="M1660.76 219.829 L1660.76 205.801 L1665.02 205.801 L1665.02 241.819 L1660.76 241.819 L1660.76 237.93 Q1659.41 240.245 1657.35 241.379 Q1655.32 242.49 1652.45 242.49 Q1647.75 242.49 1644.78 238.74 Q1641.84 234.99 1641.84 228.879 Q1641.84 222.768 1644.78 219.018 Q1647.75 215.268 1652.45 215.268 Q1655.32 215.268 1657.35 216.403 Q1659.41 217.514 1660.76 219.829 M1646.24 228.879 Q1646.24 233.578 1648.16 236.264 Q1650.11 238.926 1653.49 238.926 Q1656.87 238.926 1658.81 236.264 Q1660.76 233.578 1660.76 228.879 Q1660.76 224.18 1658.81 221.518 Q1656.87 218.833 1653.49 218.833 Q1650.11 218.833 1648.16 221.518 Q1646.24 224.18 1646.24 228.879 Z" fill="#000000" fill-rule="nonzero" fill-opacity="1" /><path clip-path="url(#clip530)" d="M1673.79 215.893 L1678.05 215.893 L1678.05 241.819 L1673.79 241.819 L1673.79 215.893 M1673.79 205.801 L1678.05 205.801 L1678.05 211.194 L1673.79 211.194 L1673.79 205.801 Z" fill="#000000" fill-rule="nonzero" fill-opacity="1" /><path clip-path="url(#clip530)" d="M1700.09 205.801 L1700.09 209.342 L1696.01 209.342 Q1693.72 209.342 1692.82 210.268 Q1691.94 211.194 1691.94 213.602 L1691.94 215.893 L1698.95 215.893 L1698.95 219.204 L1691.94 219.204 L1691.94 241.819 L1687.65 241.819 L1687.65 219.204 L1683.58 219.204 L1683.58 215.893 L1687.65 215.893 L1687.65 214.088 Q1687.65 209.759 1689.67 207.792 Q1691.68 205.801 1696.06 205.801 L1700.09 205.801 Z" fill="#000000" fill-rule="nonzero" fill-opacity="1" /><path clip-path="url(#clip530)" d="M1716.77 205.801 L1716.77 209.342 L1712.7 209.342 Q1710.41 209.342 1709.51 210.268 Q1708.63 211.194 1708.63 213.602 L1708.63 215.893 L1715.64 215.893 L1715.64 219.204 L1708.63 219.204 L1708.63 241.819 L1704.34 241.819 L1704.34 219.204 L1700.27 219.204 L1700.27 215.893 L1704.34 215.893 L1704.34 214.088 Q1704.34 209.759 1706.36 207.792 Q1708.37 205.801 1712.75 205.801 L1716.77 205.801 Z" fill="#000000" fill-rule="nonzero" fill-opacity="1" /><path clip-path="url(#clip530)" d="M1742.52 227.791 L1742.52 229.875 L1722.93 229.875 Q1723.21 234.273 1725.57 236.588 Q1727.96 238.879 1732.19 238.879 Q1734.65 238.879 1736.94 238.278 Q1739.25 237.676 1741.52 236.472 L1741.52 240.5 Q1739.23 241.472 1736.82 241.981 Q1734.41 242.49 1731.94 242.49 Q1725.73 242.49 1722.1 238.879 Q1718.49 235.268 1718.49 229.111 Q1718.49 222.745 1721.91 219.018 Q1725.36 215.268 1731.2 215.268 Q1736.43 215.268 1739.46 218.648 Q1742.52 222.004 1742.52 227.791 M1738.26 226.541 Q1738.21 223.046 1736.29 220.963 Q1734.39 218.879 1731.24 218.879 Q1727.68 218.879 1725.52 220.893 Q1723.4 222.907 1723.07 226.565 L1738.26 226.541 Z" fill="#000000" fill-rule="nonzero" fill-opacity="1" /><path clip-path="url(#clip530)" d="M1764.53 219.875 Q1763.81 219.458 1762.96 219.273 Q1762.12 219.065 1761.1 219.065 Q1757.49 219.065 1755.55 221.426 Q1753.63 223.764 1753.63 228.162 L1753.63 241.819 L1749.34 241.819 L1749.34 215.893 L1753.63 215.893 L1753.63 219.921 Q1754.97 217.56 1757.12 216.426 Q1759.27 215.268 1762.35 215.268 Q1762.79 215.268 1763.33 215.338 Q1763.86 215.384 1764.51 215.5 L1764.53 219.875 Z" fill="#000000" fill-rule="nonzero" fill-opacity="1" /><path clip-path="url(#clip530)" d="M1790.13 227.791 L1790.13 229.875 L1770.55 229.875 Q1770.83 234.273 1773.19 236.588 Q1775.57 238.879 1779.81 238.879 Q1782.26 238.879 1784.55 238.278 Q1786.87 237.676 1789.14 236.472 L1789.14 240.5 Q1786.84 241.472 1784.44 241.981 Q1782.03 242.49 1779.55 242.49 Q1773.35 242.49 1769.71 238.879 Q1766.1 235.268 1766.1 229.111 Q1766.1 222.745 1769.53 219.018 Q1772.98 215.268 1778.81 215.268 Q1784.04 215.268 1787.08 218.648 Q1790.13 222.004 1790.13 227.791 M1785.87 226.541 Q1785.83 223.046 1783.9 220.963 Q1782.01 218.879 1778.86 218.879 Q1775.29 218.879 1773.14 220.893 Q1771.01 222.907 1770.69 226.565 L1785.87 226.541 Z" fill="#000000" fill-rule="nonzero" fill-opacity="1" /><path clip-path="url(#clip530)" d="M1818.67 226.171 L1818.67 241.819 L1814.41 241.819 L1814.41 226.31 Q1814.41 222.629 1812.98 220.801 Q1811.54 218.972 1808.67 218.972 Q1805.22 218.972 1803.23 221.171 Q1801.24 223.37 1801.24 227.166 L1801.24 241.819 L1796.96 241.819 L1796.96 215.893 L1801.24 215.893 L1801.24 219.921 Q1802.77 217.583 1804.83 216.426 Q1806.91 215.268 1809.62 215.268 Q1814.09 215.268 1816.38 218.046 Q1818.67 220.801 1818.67 226.171 Z" fill="#000000" fill-rule="nonzero" fill-opacity="1" /><path clip-path="url(#clip530)" d="M1845.83 216.889 L1845.83 220.87 Q1844.02 219.875 1842.19 219.389 Q1840.39 218.879 1838.53 218.879 Q1834.39 218.879 1832.1 221.518 Q1829.81 224.134 1829.81 228.879 Q1829.81 233.625 1832.1 236.264 Q1834.39 238.879 1838.53 238.879 Q1840.39 238.879 1842.19 238.393 Q1844.02 237.884 1845.83 236.889 L1845.83 240.824 Q1844.04 241.657 1842.12 242.074 Q1840.22 242.49 1838.07 242.49 Q1832.21 242.49 1828.77 238.81 Q1825.32 235.129 1825.32 228.879 Q1825.32 222.537 1828.79 218.903 Q1832.28 215.268 1838.35 215.268 Q1840.32 215.268 1842.19 215.685 Q1844.07 216.079 1845.83 216.889 Z" fill="#000000" fill-rule="nonzero" fill-opacity="1" /><path clip-path="url(#clip530)" d="M1875.41 227.791 L1875.41 229.875 L1855.83 229.875 Q1856.1 234.273 1858.46 236.588 Q1860.85 238.879 1865.08 238.879 Q1867.54 238.879 1869.83 238.278 Q1872.14 237.676 1874.41 236.472 L1874.41 240.5 Q1872.12 241.472 1869.71 241.981 Q1867.31 242.49 1864.83 242.49 Q1858.63 242.49 1854.99 238.879 Q1851.38 235.268 1851.38 229.111 Q1851.38 222.745 1854.81 219.018 Q1858.26 215.268 1864.09 215.268 Q1869.32 215.268 1872.35 218.648 Q1875.41 222.004 1875.41 227.791 M1871.15 226.541 Q1871.1 223.046 1869.18 220.963 Q1867.28 218.879 1864.14 218.879 Q1860.57 218.879 1858.42 220.893 Q1856.29 222.907 1855.96 226.565 L1871.15 226.541 Z" fill="#000000" fill-rule="nonzero" fill-opacity="1" /><defs>
  <pattern id="pattern4" patternUnits="userSpaceOnUse" x="0" y="0" width="32" height="32">
<g transform="scale(4)"><path d="M-4,4 l8,-8 M4,12 l8,-8 M-4,12 l16,-16" style="stroke:#000000; stroke-width:1; stroke-opacity:1"/></g></pattern>
</defs>
<path clip-path="url(#clip530)" d="M1108.69 297.115 L1224.71 297.115 L1224.71 255.643 L1108.69 255.643 L1108.69 297.115  Z" fill="url(#pattern4)"/>
<polyline clip-path="url(#clip530)" style="stroke:#000000; stroke-linecap:round; stroke-linejoin:round; stroke-width:2; stroke-opacity:1; fill:none" points="1108.69,297.115 1224.71,297.115 1224.71,255.643 1108.69,255.643 1108.69,297.115 "/>
<path clip-path="url(#clip530)" d="M1244.05 259.099 L1248.72 259.099 L1248.72 293.659 L1244.05 293.659 L1244.05 259.099 Z" fill="#000000" fill-rule="nonzero" fill-opacity="1" /><path clip-path="url(#clip530)" d="M1279.39 278.011 L1279.39 293.659 L1275.13 293.659 L1275.13 278.15 Q1275.13 274.469 1273.7 272.641 Q1272.26 270.812 1269.39 270.812 Q1265.94 270.812 1263.95 273.011 Q1261.96 275.21 1261.96 279.006 L1261.96 293.659 L1257.68 293.659 L1257.68 267.733 L1261.96 267.733 L1261.96 271.761 Q1263.49 269.423 1265.55 268.266 Q1267.63 267.108 1270.34 267.108 Q1274.81 267.108 1277.1 269.886 Q1279.39 272.641 1279.39 278.011 Z" fill="#000000" fill-rule="nonzero" fill-opacity="1" /><path clip-path="url(#clip530)" d="M1292.1 260.372 L1292.1 267.733 L1300.87 267.733 L1300.87 271.044 L1292.1 271.044 L1292.1 285.118 Q1292.1 288.289 1292.96 289.192 Q1293.84 290.094 1296.5 290.094 L1300.87 290.094 L1300.87 293.659 L1296.5 293.659 Q1291.57 293.659 1289.69 291.83 Q1287.82 289.979 1287.82 285.118 L1287.82 271.044 L1284.69 271.044 L1284.69 267.733 L1287.82 267.733 L1287.82 260.372 L1292.1 260.372 Z" fill="#000000" fill-rule="nonzero" fill-opacity="1" /><path clip-path="url(#clip530)" d="M1328.65 279.631 L1328.65 281.715 L1309.07 281.715 Q1309.35 286.113 1311.71 288.428 Q1314.09 290.719 1318.33 290.719 Q1320.78 290.719 1323.07 290.118 Q1325.39 289.516 1327.66 288.312 L1327.66 292.34 Q1325.36 293.312 1322.96 293.821 Q1320.55 294.33 1318.07 294.33 Q1311.87 294.33 1308.24 290.719 Q1304.62 287.108 1304.62 280.951 Q1304.62 274.585 1308.05 270.858 Q1311.5 267.108 1317.33 267.108 Q1322.56 267.108 1325.6 270.488 Q1328.65 273.844 1328.65 279.631 M1324.39 278.381 Q1324.35 274.886 1322.43 272.803 Q1320.53 270.719 1317.38 270.719 Q1313.81 270.719 1311.66 272.733 Q1309.53 274.747 1309.21 278.405 L1324.39 278.381 Z" fill="#000000" fill-rule="nonzero" fill-opacity="1" /><path clip-path="url(#clip530)" d="M1352.7 280.395 Q1352.7 275.766 1350.78 273.219 Q1348.88 270.673 1345.43 270.673 Q1342.01 270.673 1340.09 273.219 Q1338.19 275.766 1338.19 280.395 Q1338.19 285.002 1340.09 287.548 Q1342.01 290.094 1345.43 290.094 Q1348.88 290.094 1350.78 287.548 Q1352.7 285.002 1352.7 280.395 M1356.96 290.442 Q1356.96 297.062 1354.02 300.279 Q1351.08 303.52 1345.02 303.52 Q1342.77 303.52 1340.78 303.173 Q1338.79 302.849 1336.92 302.154 L1336.92 298.011 Q1338.79 299.029 1340.62 299.516 Q1342.45 300.002 1344.35 300.002 Q1348.54 300.002 1350.62 297.803 Q1352.7 295.627 1352.7 291.205 L1352.7 289.099 Q1351.38 291.391 1349.32 292.525 Q1347.26 293.659 1344.39 293.659 Q1339.62 293.659 1336.71 290.025 Q1333.79 286.391 1333.79 280.395 Q1333.79 274.377 1336.71 270.743 Q1339.62 267.108 1344.39 267.108 Q1347.26 267.108 1349.32 268.243 Q1351.38 269.377 1352.7 271.669 L1352.7 267.733 L1356.96 267.733 L1356.96 290.442 Z" fill="#000000" fill-rule="nonzero" fill-opacity="1" /><path clip-path="url(#clip530)" d="M1380.76 271.715 Q1380.04 271.298 1379.18 271.113 Q1378.35 270.905 1377.33 270.905 Q1373.72 270.905 1371.78 273.266 Q1369.86 275.604 1369.86 280.002 L1369.86 293.659 L1365.57 293.659 L1365.57 267.733 L1369.86 267.733 L1369.86 271.761 Q1371.2 269.4 1373.35 268.266 Q1375.5 267.108 1378.58 267.108 Q1379.02 267.108 1379.55 267.178 Q1380.09 267.224 1380.74 267.34 L1380.76 271.715 Z" fill="#000000" fill-rule="nonzero" fill-opacity="1" /><path clip-path="url(#clip530)" d="M1397.01 280.627 Q1391.85 280.627 1389.86 281.807 Q1387.86 282.988 1387.86 285.835 Q1387.86 288.104 1389.35 289.446 Q1390.85 290.766 1393.42 290.766 Q1396.96 290.766 1399.09 288.266 Q1401.24 285.743 1401.24 281.576 L1401.24 280.627 L1397.01 280.627 M1405.5 278.868 L1405.5 293.659 L1401.24 293.659 L1401.24 289.724 Q1399.79 292.085 1397.61 293.219 Q1395.43 294.33 1392.29 294.33 Q1388.3 294.33 1385.94 292.108 Q1383.61 289.863 1383.61 286.113 Q1383.61 281.738 1386.52 279.516 Q1389.46 277.294 1395.27 277.294 L1401.24 277.294 L1401.24 276.877 Q1401.24 273.937 1399.3 272.34 Q1397.38 270.719 1393.88 270.719 Q1391.66 270.719 1389.55 271.252 Q1387.45 271.784 1385.5 272.849 L1385.5 268.914 Q1387.84 268.011 1390.04 267.571 Q1392.24 267.108 1394.32 267.108 Q1399.95 267.108 1402.73 270.025 Q1405.5 272.942 1405.5 278.868 Z" fill="#000000" fill-rule="nonzero" fill-opacity="1" /><path clip-path="url(#clip530)" d="M1418.49 260.372 L1418.49 267.733 L1427.26 267.733 L1427.26 271.044 L1418.49 271.044 L1418.49 285.118 Q1418.49 288.289 1419.35 289.192 Q1420.23 290.094 1422.89 290.094 L1427.26 290.094 L1427.26 293.659 L1422.89 293.659 Q1417.96 293.659 1416.08 291.83 Q1414.21 289.979 1414.21 285.118 L1414.21 271.044 L1411.08 271.044 L1411.08 267.733 L1414.21 267.733 L1414.21 260.372 L1418.49 260.372 Z" fill="#000000" fill-rule="nonzero" fill-opacity="1" /><path clip-path="url(#clip530)" d="M1455.04 279.631 L1455.04 281.715 L1435.46 281.715 Q1435.73 286.113 1438.1 288.428 Q1440.48 290.719 1444.72 290.719 Q1447.17 290.719 1449.46 290.118 Q1451.78 289.516 1454.04 288.312 L1454.04 292.34 Q1451.75 293.312 1449.35 293.821 Q1446.94 294.33 1444.46 294.33 Q1438.26 294.33 1434.62 290.719 Q1431.01 287.108 1431.01 280.951 Q1431.01 274.585 1434.44 270.858 Q1437.89 267.108 1443.72 267.108 Q1448.95 267.108 1451.98 270.488 Q1455.04 273.844 1455.04 279.631 M1450.78 278.381 Q1450.73 274.886 1448.81 272.803 Q1446.92 270.719 1443.77 270.719 Q1440.2 270.719 1438.05 272.733 Q1435.92 274.747 1435.6 278.405 L1450.78 278.381 Z" fill="#000000" fill-rule="nonzero" fill-opacity="1" /><path clip-path="url(#clip530)" d="M1479.09 271.669 L1479.09 257.641 L1483.35 257.641 L1483.35 293.659 L1479.09 293.659 L1479.09 289.77 Q1477.75 292.085 1475.69 293.219 Q1473.65 294.33 1470.78 294.33 Q1466.08 294.33 1463.12 290.58 Q1460.18 286.83 1460.18 280.719 Q1460.18 274.608 1463.12 270.858 Q1466.08 267.108 1470.78 267.108 Q1473.65 267.108 1475.69 268.243 Q1477.75 269.354 1479.09 271.669 M1464.58 280.719 Q1464.58 285.418 1466.5 288.104 Q1468.44 290.766 1471.82 290.766 Q1475.2 290.766 1477.15 288.104 Q1479.09 285.418 1479.09 280.719 Q1479.09 276.02 1477.15 273.358 Q1475.2 270.673 1471.82 270.673 Q1468.44 270.673 1466.5 273.358 Q1464.58 276.02 1464.58 280.719 Z" fill="#000000" fill-rule="nonzero" fill-opacity="1" /><path clip-path="url(#clip530)" d="M1524.25 280.395 Q1524.25 275.766 1522.33 273.219 Q1520.43 270.673 1516.98 270.673 Q1513.56 270.673 1511.64 273.219 Q1509.74 275.766 1509.74 280.395 Q1509.74 285.002 1511.64 287.548 Q1513.56 290.094 1516.98 290.094 Q1520.43 290.094 1522.33 287.548 Q1524.25 285.002 1524.25 280.395 M1528.51 290.442 Q1528.51 297.062 1525.57 300.279 Q1522.63 303.52 1516.57 303.52 Q1514.32 303.52 1512.33 303.173 Q1510.34 302.849 1508.47 302.154 L1508.47 298.011 Q1510.34 299.029 1512.17 299.516 Q1514 300.002 1515.9 300.002 Q1520.09 300.002 1522.17 297.803 Q1524.25 295.627 1524.25 291.205 L1524.25 289.099 Q1522.93 291.391 1520.87 292.525 Q1518.81 293.659 1515.94 293.659 Q1511.17 293.659 1508.26 290.025 Q1505.34 286.391 1505.34 280.395 Q1505.34 274.377 1508.26 270.743 Q1511.17 267.108 1515.94 267.108 Q1518.81 267.108 1520.87 268.243 Q1522.93 269.377 1524.25 271.669 L1524.25 267.733 L1528.51 267.733 L1528.51 290.442 Z" fill="#000000" fill-rule="nonzero" fill-opacity="1" /><path clip-path="url(#clip530)" d="M1552.31 271.715 Q1551.59 271.298 1550.73 271.113 Q1549.9 270.905 1548.88 270.905 Q1545.27 270.905 1543.33 273.266 Q1541.41 275.604 1541.41 280.002 L1541.41 293.659 L1537.12 293.659 L1537.12 267.733 L1541.41 267.733 L1541.41 271.761 Q1542.75 269.4 1544.9 268.266 Q1547.05 267.108 1550.13 267.108 Q1550.57 267.108 1551.1 267.178 Q1551.64 267.224 1552.29 267.34 L1552.31 271.715 Z" fill="#000000" fill-rule="nonzero" fill-opacity="1" /><path clip-path="url(#clip530)" d="M1568.56 280.627 Q1563.4 280.627 1561.41 281.807 Q1559.41 282.988 1559.41 285.835 Q1559.41 288.104 1560.9 289.446 Q1562.4 290.766 1564.97 290.766 Q1568.51 290.766 1570.64 288.266 Q1572.79 285.743 1572.79 281.576 L1572.79 280.627 L1568.56 280.627 M1577.05 278.868 L1577.05 293.659 L1572.79 293.659 L1572.79 289.724 Q1571.34 292.085 1569.16 293.219 Q1566.98 294.33 1563.84 294.33 Q1559.85 294.33 1557.49 292.108 Q1555.16 289.863 1555.16 286.113 Q1555.16 281.738 1558.07 279.516 Q1561.01 277.294 1566.82 277.294 L1572.79 277.294 L1572.79 276.877 Q1572.79 273.937 1570.85 272.34 Q1568.93 270.719 1565.43 270.719 Q1563.21 270.719 1561.1 271.252 Q1559 271.784 1557.05 272.849 L1557.05 268.914 Q1559.39 268.011 1561.59 267.571 Q1563.79 267.108 1565.87 267.108 Q1571.5 267.108 1574.28 270.025 Q1577.05 272.942 1577.05 278.868 Z" fill="#000000" fill-rule="nonzero" fill-opacity="1" /><path clip-path="url(#clip530)" d="M1602.89 271.669 L1602.89 257.641 L1607.15 257.641 L1607.15 293.659 L1602.89 293.659 L1602.89 289.77 Q1601.54 292.085 1599.48 293.219 Q1597.45 294.33 1594.58 294.33 Q1589.88 294.33 1586.91 290.58 Q1583.97 286.83 1583.97 280.719 Q1583.97 274.608 1586.91 270.858 Q1589.88 267.108 1594.58 267.108 Q1597.45 267.108 1599.48 268.243 Q1601.54 269.354 1602.89 271.669 M1588.37 280.719 Q1588.37 285.418 1590.29 288.104 Q1592.24 290.766 1595.62 290.766 Q1599 290.766 1600.94 288.104 Q1602.89 285.418 1602.89 280.719 Q1602.89 276.02 1600.94 273.358 Q1599 270.673 1595.62 270.673 Q1592.24 270.673 1590.29 273.358 Q1588.37 276.02 1588.37 280.719 Z" fill="#000000" fill-rule="nonzero" fill-opacity="1" /><path clip-path="url(#clip530)" d="M1615.92 267.733 L1620.18 267.733 L1620.18 293.659 L1615.92 293.659 L1615.92 267.733 M1615.92 257.641 L1620.18 257.641 L1620.18 263.034 L1615.92 263.034 L1615.92 257.641 Z" fill="#000000" fill-rule="nonzero" fill-opacity="1" /><path clip-path="url(#clip530)" d="M1651.27 279.631 L1651.27 281.715 L1631.68 281.715 Q1631.96 286.113 1634.32 288.428 Q1636.71 290.719 1640.94 290.719 Q1643.4 290.719 1645.69 290.118 Q1648 289.516 1650.27 288.312 L1650.27 292.34 Q1647.98 293.312 1645.57 293.821 Q1643.16 294.33 1640.69 294.33 Q1634.48 294.33 1630.85 290.719 Q1627.24 287.108 1627.24 280.951 Q1627.24 274.585 1630.66 270.858 Q1634.11 267.108 1639.95 267.108 Q1645.18 267.108 1648.21 270.488 Q1651.27 273.844 1651.27 279.631 M1647.01 278.381 Q1646.96 274.886 1645.04 272.803 Q1643.14 270.719 1639.99 270.719 Q1636.43 270.719 1634.28 272.733 Q1632.15 274.747 1631.82 278.405 L1647.01 278.381 Z" fill="#000000" fill-rule="nonzero" fill-opacity="1" /><path clip-path="url(#clip530)" d="M1679.81 278.011 L1679.81 293.659 L1675.55 293.659 L1675.55 278.15 Q1675.55 274.469 1674.11 272.641 Q1672.68 270.812 1669.81 270.812 Q1666.36 270.812 1664.37 273.011 Q1662.38 275.21 1662.38 279.006 L1662.38 293.659 L1658.09 293.659 L1658.09 267.733 L1662.38 267.733 L1662.38 271.761 Q1663.9 269.423 1665.97 268.266 Q1668.05 267.108 1670.76 267.108 Q1675.22 267.108 1677.52 269.886 Q1679.81 272.641 1679.81 278.011 Z" fill="#000000" fill-rule="nonzero" fill-opacity="1" /><path clip-path="url(#clip530)" d="M1692.52 260.372 L1692.52 267.733 L1701.29 267.733 L1701.29 271.044 L1692.52 271.044 L1692.52 285.118 Q1692.52 288.289 1693.37 289.192 Q1694.25 290.094 1696.91 290.094 L1701.29 290.094 L1701.29 293.659 L1696.91 293.659 Q1691.98 293.659 1690.11 291.83 Q1688.23 289.979 1688.23 285.118 L1688.23 271.044 L1685.11 271.044 L1685.11 267.733 L1688.23 267.733 L1688.23 260.372 L1692.52 260.372 Z" fill="#000000" fill-rule="nonzero" fill-opacity="1" /></svg>
