<?xml version="1.0" encoding="utf-8"?>
<svg xmlns="http://www.w3.org/2000/svg" xmlns:xlink="http://www.w3.org/1999/xlink" width="500" height="200" viewBox="0 0 2000 800">
<defs>
  <clipPath id="clip570">
    <rect x="0" y="0" width="2000" height="800"/>
  </clipPath>
</defs>
<path clip-path="url(#clip570)" d="M0 800 L2000 800 L2000 0 L0 0  Z" fill="#ffffff" fill-rule="evenodd" fill-opacity="1"/>
<defs>
  <clipPath id="clip571">
    <rect x="400" y="0" width="1401" height="800"/>
  </clipPath>
</defs>
<path clip-path="url(#clip570)" d="M182.76 700.496 L1952.76 700.496 L1952.76 47.2441 L182.76 47.2441  Z" fill="#ffffff" fill-rule="evenodd" fill-opacity="1"/>
<defs>
  <clipPath id="clip572">
    <rect x="182" y="47" width="1771" height="654"/>
  </clipPath>
</defs>
<polyline clip-path="url(#clip572)" style="stroke:#000000; stroke-linecap:round; stroke-linejoin:round; stroke-width:2; stroke-opacity:0.1; fill:none" points="576.093,700.496 576.093,47.2441 "/>
<polyline clip-path="url(#clip572)" style="stroke:#000000; stroke-linecap:round; stroke-linejoin:round; stroke-width:2; stroke-opacity:0.1; fill:none" points="1166.09,700.496 1166.09,47.2441 "/>
<polyline clip-path="url(#clip570)" style="stroke:#000000; stroke-linecap:round; stroke-linejoin:round; stroke-width:4; stroke-opacity:1; fill:none" points="182.76,700.496 1952.76,700.496 "/>
<polyline clip-path="url(#clip570)" style="stroke:#000000; stroke-linecap:round; stroke-linejoin:round; stroke-width:4; stroke-opacity:1; fill:none" points="576.093,700.496 576.093,681.598 "/>
<polyline clip-path="url(#clip570)" style="stroke:#000000; stroke-linecap:round; stroke-linejoin:round; stroke-width:4; stroke-opacity:1; fill:none" points="1166.09,700.496 1166.09,681.598 "/>
<path clip-path="url(#clip570)" d="M590.267 741.406 Q590.267 743.21 589.139 744.24 Q588.012 745.239 586.724 745.239 Q585.5 745.239 584.856 744.53 Q584.212 743.822 584.212 742.92 Q584.212 741.696 585.114 740.633 Q586.015 739.571 587.368 739.345 Q586.048 738.508 584.083 738.508 Q582.795 738.508 581.668 739.184 Q580.573 739.86 579.896 740.73 Q579.252 741.6 578.673 742.856 Q578.125 744.079 577.9 744.82 Q577.706 745.529 577.545 746.302 L575.291 755.319 Q574.196 759.603 574.196 761.116 Q574.196 762.984 575.098 764.24 Q575.999 765.464 577.803 765.464 Q578.512 765.464 579.317 765.271 Q580.122 765.045 581.152 764.466 Q582.215 763.854 583.149 762.952 Q584.115 762.018 585.049 760.44 Q585.983 758.862 586.595 756.833 Q586.788 756.124 587.433 756.124 Q588.238 756.124 588.238 756.769 Q588.238 757.316 587.787 758.475 Q587.368 759.603 586.434 761.084 Q585.532 762.533 584.341 763.854 Q583.149 765.142 581.378 766.044 Q579.607 766.946 577.674 766.946 Q574.904 766.946 573.069 765.464 Q571.233 763.983 570.557 761.922 Q570.396 762.211 570.17 762.598 Q569.945 762.984 569.268 763.854 Q568.624 764.691 567.884 765.335 Q567.143 765.947 565.983 766.43 Q564.856 766.946 563.632 766.946 Q562.087 766.946 560.702 766.495 Q559.349 766.044 558.383 765.013 Q557.417 763.983 557.417 762.566 Q557.417 760.988 558.479 759.893 Q559.574 758.765 561.056 758.765 Q561.99 758.765 562.731 759.313 Q563.504 759.86 563.504 761.052 Q563.504 762.372 562.602 763.371 Q561.7 764.369 560.412 764.627 Q561.732 765.464 563.697 765.464 Q565.822 765.464 567.497 763.596 Q569.172 761.728 569.977 758.604 Q571.974 751.1 572.747 747.751 Q573.52 744.369 573.52 742.92 Q573.52 741.567 573.165 740.633 Q572.811 739.699 572.199 739.281 Q571.619 738.83 571.072 738.669 Q570.557 738.508 569.977 738.508 Q569.011 738.508 567.916 738.894 Q566.853 739.281 565.565 740.183 Q564.309 741.052 563.117 742.856 Q561.926 744.659 561.12 747.139 Q560.959 747.88 560.251 747.88 Q559.478 747.848 559.478 747.203 Q559.478 746.656 559.897 745.529 Q560.347 744.369 561.249 742.92 Q562.183 741.471 563.375 740.183 Q564.599 738.862 566.37 737.96 Q568.173 737.059 570.106 737.059 Q570.975 737.059 571.813 737.252 Q572.682 737.413 573.713 737.896 Q574.776 738.379 575.71 739.442 Q576.644 740.505 577.223 742.05 Q577.61 741.31 578.125 740.601 Q578.673 739.893 579.51 739.023 Q580.379 738.121 581.571 737.606 Q582.795 737.059 584.148 737.059 Q585.468 737.059 586.756 737.413 Q588.044 737.735 589.139 738.798 Q590.267 739.828 590.267 741.406 Z" fill="#000000" fill-rule="nonzero" fill-opacity="1" /><path clip-path="url(#clip570)" d="M1168.58 750.163 Q1168.58 751.966 1167.45 752.997 Q1166.32 753.995 1165.03 753.995 Q1163.81 753.995 1163.17 753.287 Q1162.52 752.578 1162.52 751.677 Q1162.52 750.453 1163.42 749.39 Q1164.32 748.327 1165.68 748.102 Q1164.36 747.264 1162.39 747.264 Q1161.1 747.264 1159.98 747.941 Q1158.88 748.617 1158.21 749.487 Q1157.56 750.356 1156.98 751.612 Q1156.43 752.836 1156.21 753.577 Q1156.02 754.285 1155.85 755.058 L1153.6 764.076 Q1152.51 768.359 1152.51 769.873 Q1152.51 771.741 1153.41 772.997 Q1154.31 774.221 1156.11 774.221 Q1156.82 774.221 1157.63 774.027 Q1158.43 773.802 1159.46 773.222 Q1160.52 772.61 1161.46 771.709 Q1162.42 770.775 1163.36 769.197 Q1164.29 767.618 1164.9 765.589 Q1165.1 764.881 1165.74 764.881 Q1166.55 764.881 1166.55 765.525 Q1166.55 766.073 1166.1 767.232 Q1165.68 768.359 1164.74 769.841 Q1163.84 771.29 1162.65 772.61 Q1161.46 773.899 1159.69 774.8 Q1157.92 775.702 1155.98 775.702 Q1153.21 775.702 1151.38 774.221 Q1149.54 772.739 1148.87 770.678 Q1148.71 770.968 1148.48 771.354 Q1148.25 771.741 1147.58 772.61 Q1146.93 773.448 1146.19 774.092 Q1145.45 774.704 1144.29 775.187 Q1143.17 775.702 1141.94 775.702 Q1140.4 775.702 1139.01 775.251 Q1137.66 774.8 1136.69 773.77 Q1135.73 772.739 1135.73 771.322 Q1135.73 769.744 1136.79 768.649 Q1137.88 767.522 1139.37 767.522 Q1140.3 767.522 1141.04 768.069 Q1141.81 768.617 1141.81 769.808 Q1141.81 771.129 1140.91 772.127 Q1140.01 773.126 1138.72 773.383 Q1140.04 774.221 1142.01 774.221 Q1144.13 774.221 1145.81 772.353 Q1147.48 770.485 1148.29 767.361 Q1150.28 759.857 1151.06 756.507 Q1151.83 753.126 1151.83 751.677 Q1151.83 750.324 1151.47 749.39 Q1151.12 748.456 1150.51 748.037 Q1149.93 747.586 1149.38 747.425 Q1148.87 747.264 1148.29 747.264 Q1147.32 747.264 1146.23 747.651 Q1145.16 748.037 1143.87 748.939 Q1142.62 749.809 1141.43 751.612 Q1140.23 753.416 1139.43 755.896 Q1139.27 756.636 1138.56 756.636 Q1137.79 756.604 1137.79 755.96 Q1137.79 755.412 1138.21 754.285 Q1138.66 753.126 1139.56 751.677 Q1140.49 750.227 1141.68 748.939 Q1142.91 747.619 1144.68 746.717 Q1146.48 745.815 1148.42 745.815 Q1149.28 745.815 1150.12 746.008 Q1150.99 746.169 1152.02 746.652 Q1153.09 747.136 1154.02 748.198 Q1154.95 749.261 1155.53 750.807 Q1155.92 750.066 1156.43 749.358 Q1156.98 748.649 1157.82 747.78 Q1158.69 746.878 1159.88 746.363 Q1161.1 745.815 1162.46 745.815 Q1163.78 745.815 1165.07 746.169 Q1166.35 746.491 1167.45 747.554 Q1168.58 748.585 1168.58 750.163 Z" fill="#000000" fill-rule="nonzero" fill-opacity="1" /><path clip-path="url(#clip570)" d="M1178.31 731.161 Q1178.31 729.519 1179.3 728.843 Q1180.3 728.134 1181.37 728.134 Q1182.69 728.134 1183.52 728.939 Q1184.39 729.712 1184.39 731.161 Q1184.39 731.806 1184.33 732.16 L1182.14 752.063 L1180.63 752.063 L1178.37 732.16 Q1178.31 731.806 1178.31 731.161 Z" fill="#000000" fill-rule="nonzero" fill-opacity="1" /><polyline clip-path="url(#clip572)" style="stroke:#000000; stroke-linecap:round; stroke-linejoin:round; stroke-width:2; stroke-opacity:0.1; fill:none" points="182.76,700.496 1952.76,700.496 "/>
<polyline clip-path="url(#clip572)" style="stroke:#000000; stroke-linecap:round; stroke-linejoin:round; stroke-width:2; stroke-opacity:0.1; fill:none" points="182.76,569.846 1952.76,569.846 "/>
<polyline clip-path="url(#clip572)" style="stroke:#000000; stroke-linecap:round; stroke-linejoin:round; stroke-width:2; stroke-opacity:0.1; fill:none" points="182.76,439.195 1952.76,439.195 "/>
<polyline clip-path="url(#clip572)" style="stroke:#000000; stroke-linecap:round; stroke-linejoin:round; stroke-width:2; stroke-opacity:0.1; fill:none" points="182.76,308.545 1952.76,308.545 "/>
<polyline clip-path="url(#clip572)" style="stroke:#000000; stroke-linecap:round; stroke-linejoin:round; stroke-width:2; stroke-opacity:0.1; fill:none" points="182.76,177.894 1952.76,177.894 "/>
<polyline clip-path="url(#clip570)" style="stroke:#000000; stroke-linecap:round; stroke-linejoin:round; stroke-width:4; stroke-opacity:1; fill:none" points="182.76,700.496 182.76,47.2441 "/>
<polyline clip-path="url(#clip570)" style="stroke:#000000; stroke-linecap:round; stroke-linejoin:round; stroke-width:4; stroke-opacity:1; fill:none" points="182.76,700.496 201.658,700.496 "/>
<polyline clip-path="url(#clip570)" style="stroke:#000000; stroke-linecap:round; stroke-linejoin:round; stroke-width:4; stroke-opacity:1; fill:none" points="182.76,569.846 201.658,569.846 "/>
<polyline clip-path="url(#clip570)" style="stroke:#000000; stroke-linecap:round; stroke-linejoin:round; stroke-width:4; stroke-opacity:1; fill:none" points="182.76,439.195 201.658,439.195 "/>
<polyline clip-path="url(#clip570)" style="stroke:#000000; stroke-linecap:round; stroke-linejoin:round; stroke-width:4; stroke-opacity:1; fill:none" points="182.76,308.545 201.658,308.545 "/>
<polyline clip-path="url(#clip570)" style="stroke:#000000; stroke-linecap:round; stroke-linejoin:round; stroke-width:4; stroke-opacity:1; fill:none" points="182.76,177.894 201.658,177.894 "/>
<path clip-path="url(#clip570)" d="M65.4226 686.295 Q61.8115 686.295 59.9828 689.859 Q58.1773 693.401 58.1773 700.531 Q58.1773 707.637 59.9828 711.202 Q61.8115 714.743 65.4226 714.743 Q69.0569 714.743 70.8624 711.202 Q72.6911 707.637 72.6911 700.531 Q72.6911 693.401 70.8624 689.859 Q69.0569 686.295 65.4226 686.295 M65.4226 682.591 Q71.2328 682.591 74.2883 687.197 Q77.367 691.781 77.367 700.531 Q77.367 709.257 74.2883 713.864 Q71.2328 718.447 65.4226 718.447 Q59.6125 718.447 56.5338 713.864 Q53.4782 709.257 53.4782 700.531 Q53.4782 691.781 56.5338 687.197 Q59.6125 682.591 65.4226 682.591 Z" fill="#000000" fill-rule="nonzero" fill-opacity="1" /><path clip-path="url(#clip570)" d="M85.5845 711.896 L90.4688 711.896 L90.4688 717.776 L85.5845 717.776 L85.5845 711.896 Z" fill="#000000" fill-rule="nonzero" fill-opacity="1" /><path clip-path="url(#clip570)" d="M110.654 686.295 Q107.043 686.295 105.214 689.859 Q103.409 693.401 103.409 700.531 Q103.409 707.637 105.214 711.202 Q107.043 714.743 110.654 714.743 Q114.288 714.743 116.094 711.202 Q117.922 707.637 117.922 700.531 Q117.922 693.401 116.094 689.859 Q114.288 686.295 110.654 686.295 M110.654 682.591 Q116.464 682.591 119.52 687.197 Q122.598 691.781 122.598 700.531 Q122.598 709.257 119.52 713.864 Q116.464 718.447 110.654 718.447 Q104.844 718.447 101.765 713.864 Q98.7095 709.257 98.7095 700.531 Q98.7095 691.781 101.765 687.197 Q104.844 682.591 110.654 682.591 Z" fill="#000000" fill-rule="nonzero" fill-opacity="1" /><path clip-path="url(#clip570)" d="M140.816 686.295 Q137.205 686.295 135.376 689.859 Q133.57 693.401 133.57 700.531 Q133.57 707.637 135.376 711.202 Q137.205 714.743 140.816 714.743 Q144.45 714.743 146.256 711.202 Q148.084 707.637 148.084 700.531 Q148.084 693.401 146.256 689.859 Q144.45 686.295 140.816 686.295 M140.816 682.591 Q146.626 682.591 149.681 687.197 Q152.76 691.781 152.76 700.531 Q152.76 709.257 149.681 713.864 Q146.626 718.447 140.816 718.447 Q135.006 718.447 131.927 713.864 Q128.871 709.257 128.871 700.531 Q128.871 691.781 131.927 687.197 Q135.006 682.591 140.816 682.591 Z" fill="#000000" fill-rule="nonzero" fill-opacity="1" /><path clip-path="url(#clip570)" d="M67.0198 555.644 Q63.4087 555.644 61.58 559.209 Q59.7745 562.751 59.7745 569.88 Q59.7745 576.987 61.58 580.551 Q63.4087 584.093 67.0198 584.093 Q70.6541 584.093 72.4596 580.551 Q74.2883 576.987 74.2883 569.88 Q74.2883 562.751 72.4596 559.209 Q70.6541 555.644 67.0198 555.644 M67.0198 551.941 Q72.83 551.941 75.8855 556.547 Q78.9642 561.13 78.9642 569.88 Q78.9642 578.607 75.8855 583.214 Q72.83 587.797 67.0198 587.797 Q61.2097 587.797 58.131 583.214 Q55.0754 578.607 55.0754 569.88 Q55.0754 561.13 58.131 556.547 Q61.2097 551.941 67.0198 551.941 Z" fill="#000000" fill-rule="nonzero" fill-opacity="1" /><path clip-path="url(#clip570)" d="M87.1818 581.246 L92.066 581.246 L92.066 587.126 L87.1818 587.126 L87.1818 581.246 Z" fill="#000000" fill-rule="nonzero" fill-opacity="1" /><path clip-path="url(#clip570)" d="M112.251 555.644 Q108.64 555.644 106.811 559.209 Q105.006 562.751 105.006 569.88 Q105.006 576.987 106.811 580.551 Q108.64 584.093 112.251 584.093 Q115.885 584.093 117.691 580.551 Q119.52 576.987 119.52 569.88 Q119.52 562.751 117.691 559.209 Q115.885 555.644 112.251 555.644 M112.251 551.941 Q118.061 551.941 121.117 556.547 Q124.195 561.13 124.195 569.88 Q124.195 578.607 121.117 583.214 Q118.061 587.797 112.251 587.797 Q106.441 587.797 103.362 583.214 Q100.307 578.607 100.307 569.88 Q100.307 561.13 103.362 556.547 Q106.441 551.941 112.251 551.941 Z" fill="#000000" fill-rule="nonzero" fill-opacity="1" /><path clip-path="url(#clip570)" d="M136.441 583.19 L152.76 583.19 L152.76 587.126 L130.816 587.126 L130.816 583.19 Q133.478 580.436 138.061 575.806 Q142.668 571.153 143.848 569.811 Q146.093 567.288 146.973 565.552 Q147.876 563.792 147.876 562.103 Q147.876 559.348 145.931 557.612 Q144.01 555.876 140.908 555.876 Q138.709 555.876 136.256 556.64 Q133.825 557.403 131.047 558.954 L131.047 554.232 Q133.871 553.098 136.325 552.519 Q138.779 551.941 140.816 551.941 Q146.186 551.941 149.38 554.626 Q152.575 557.311 152.575 561.802 Q152.575 563.931 151.765 565.852 Q150.978 567.751 148.871 570.343 Q148.293 571.014 145.191 574.232 Q142.089 577.426 136.441 583.19 Z" fill="#000000" fill-rule="nonzero" fill-opacity="1" /><path clip-path="url(#clip570)" d="M64.9365 424.994 Q61.3254 424.994 59.4967 428.559 Q57.6912 432.1 57.6912 439.23 Q57.6912 446.336 59.4967 449.901 Q61.3254 453.443 64.9365 453.443 Q68.5707 453.443 70.3763 449.901 Q72.205 446.336 72.205 439.23 Q72.205 432.1 70.3763 428.559 Q68.5707 424.994 64.9365 424.994 M64.9365 421.29 Q70.7467 421.29 73.8022 425.897 Q76.8809 430.48 76.8809 439.23 Q76.8809 447.957 73.8022 452.563 Q70.7467 457.146 64.9365 457.146 Q59.1264 457.146 56.0477 452.563 Q52.9921 447.957 52.9921 439.23 Q52.9921 430.48 56.0477 425.897 Q59.1264 421.29 64.9365 421.29 Z" fill="#000000" fill-rule="nonzero" fill-opacity="1" /><path clip-path="url(#clip570)" d="M85.0984 450.596 L89.9827 450.596 L89.9827 456.475 L85.0984 456.475 L85.0984 450.596 Z" fill="#000000" fill-rule="nonzero" fill-opacity="1" /><path clip-path="url(#clip570)" d="M110.168 424.994 Q106.557 424.994 104.728 428.559 Q102.922 432.1 102.922 439.23 Q102.922 446.336 104.728 449.901 Q106.557 453.443 110.168 453.443 Q113.802 453.443 115.608 449.901 Q117.436 446.336 117.436 439.23 Q117.436 432.1 115.608 428.559 Q113.802 424.994 110.168 424.994 M110.168 421.29 Q115.978 421.29 119.033 425.897 Q122.112 430.48 122.112 439.23 Q122.112 447.957 119.033 452.563 Q115.978 457.146 110.168 457.146 Q104.358 457.146 101.279 452.563 Q98.2234 447.957 98.2234 439.23 Q98.2234 430.48 101.279 425.897 Q104.358 421.29 110.168 421.29 Z" fill="#000000" fill-rule="nonzero" fill-opacity="1" /><path clip-path="url(#clip570)" d="M143.177 425.989 L131.371 444.438 L143.177 444.438 L143.177 425.989 M141.95 421.915 L147.83 421.915 L147.83 444.438 L152.76 444.438 L152.76 448.327 L147.83 448.327 L147.83 456.475 L143.177 456.475 L143.177 448.327 L127.575 448.327 L127.575 443.813 L141.95 421.915 Z" fill="#000000" fill-rule="nonzero" fill-opacity="1" /><path clip-path="url(#clip570)" d="M65.2606 294.343 Q61.6495 294.343 59.8208 297.908 Q58.0152 301.45 58.0152 308.58 Q58.0152 315.686 59.8208 319.251 Q61.6495 322.792 65.2606 322.792 Q68.8948 322.792 70.7004 319.251 Q72.5291 315.686 72.5291 308.58 Q72.5291 301.45 70.7004 297.908 Q68.8948 294.343 65.2606 294.343 M65.2606 290.64 Q71.0707 290.64 74.1263 295.246 Q77.205 299.83 77.205 308.58 Q77.205 317.306 74.1263 321.913 Q71.0707 326.496 65.2606 326.496 Q59.4504 326.496 56.3717 321.913 Q53.3162 317.306 53.3162 308.58 Q53.3162 299.83 56.3717 295.246 Q59.4504 290.64 65.2606 290.64 Z" fill="#000000" fill-rule="nonzero" fill-opacity="1" /><path clip-path="url(#clip570)" d="M85.4225 319.945 L90.3067 319.945 L90.3067 325.825 L85.4225 325.825 L85.4225 319.945 Z" fill="#000000" fill-rule="nonzero" fill-opacity="1" /><path clip-path="url(#clip570)" d="M110.492 294.343 Q106.881 294.343 105.052 297.908 Q103.246 301.45 103.246 308.58 Q103.246 315.686 105.052 319.251 Q106.881 322.792 110.492 322.792 Q114.126 322.792 115.932 319.251 Q117.76 315.686 117.76 308.58 Q117.76 301.45 115.932 297.908 Q114.126 294.343 110.492 294.343 M110.492 290.64 Q116.302 290.64 119.358 295.246 Q122.436 299.83 122.436 308.58 Q122.436 317.306 119.358 321.913 Q116.302 326.496 110.492 326.496 Q104.682 326.496 101.603 321.913 Q98.5474 317.306 98.5474 308.58 Q98.5474 299.83 101.603 295.246 Q104.682 290.64 110.492 290.64 Z" fill="#000000" fill-rule="nonzero" fill-opacity="1" /><path clip-path="url(#clip570)" d="M141.232 306.681 Q138.084 306.681 136.232 308.834 Q134.404 310.987 134.404 314.737 Q134.404 318.464 136.232 320.64 Q138.084 322.792 141.232 322.792 Q144.381 322.792 146.209 320.64 Q148.061 318.464 148.061 314.737 Q148.061 310.987 146.209 308.834 Q144.381 306.681 141.232 306.681 M150.515 292.029 L150.515 296.288 Q148.756 295.455 146.95 295.015 Q145.168 294.575 143.408 294.575 Q138.779 294.575 136.325 297.7 Q133.894 300.825 133.547 307.144 Q134.913 305.13 136.973 304.066 Q139.033 302.978 141.51 302.978 Q146.718 302.978 149.728 306.149 Q152.76 309.297 152.76 314.737 Q152.76 320.061 149.612 323.279 Q146.464 326.496 141.232 326.496 Q135.237 326.496 132.066 321.913 Q128.894 317.306 128.894 308.58 Q128.894 300.385 132.783 295.524 Q136.672 290.64 143.223 290.64 Q144.982 290.64 146.765 290.987 Q148.57 291.334 150.515 292.029 Z" fill="#000000" fill-rule="nonzero" fill-opacity="1" /><path clip-path="url(#clip570)" d="M65.5152 163.693 Q61.9041 163.693 60.0754 167.258 Q58.2699 170.8 58.2699 177.929 Q58.2699 185.036 60.0754 188.6 Q61.9041 192.142 65.5152 192.142 Q69.1494 192.142 70.955 188.6 Q72.7837 185.036 72.7837 177.929 Q72.7837 170.8 70.955 167.258 Q69.1494 163.693 65.5152 163.693 M65.5152 159.989 Q71.3254 159.989 74.3809 164.596 Q77.4596 169.179 77.4596 177.929 Q77.4596 186.656 74.3809 191.262 Q71.3254 195.846 65.5152 195.846 Q59.7051 195.846 56.6264 191.262 Q53.5708 186.656 53.5708 177.929 Q53.5708 169.179 56.6264 164.596 Q59.7051 159.989 65.5152 159.989 Z" fill="#000000" fill-rule="nonzero" fill-opacity="1" /><path clip-path="url(#clip570)" d="M85.6771 189.295 L90.5614 189.295 L90.5614 195.174 L85.6771 195.174 L85.6771 189.295 Z" fill="#000000" fill-rule="nonzero" fill-opacity="1" /><path clip-path="url(#clip570)" d="M110.746 163.693 Q107.135 163.693 105.307 167.258 Q103.501 170.8 103.501 177.929 Q103.501 185.036 105.307 188.6 Q107.135 192.142 110.746 192.142 Q114.381 192.142 116.186 188.6 Q118.015 185.036 118.015 177.929 Q118.015 170.8 116.186 167.258 Q114.381 163.693 110.746 163.693 M110.746 159.989 Q116.557 159.989 119.612 164.596 Q122.691 169.179 122.691 177.929 Q122.691 186.656 119.612 191.262 Q116.557 195.846 110.746 195.846 Q104.936 195.846 101.858 191.262 Q98.8021 186.656 98.8021 177.929 Q98.8021 169.179 101.858 164.596 Q104.936 159.989 110.746 159.989 Z" fill="#000000" fill-rule="nonzero" fill-opacity="1" /><path clip-path="url(#clip570)" d="M140.908 178.763 Q137.575 178.763 135.654 180.545 Q133.756 182.327 133.756 185.452 Q133.756 188.577 135.654 190.36 Q137.575 192.142 140.908 192.142 Q144.242 192.142 146.163 190.36 Q148.084 188.554 148.084 185.452 Q148.084 182.327 146.163 180.545 Q144.265 178.763 140.908 178.763 M136.232 176.772 Q133.223 176.031 131.533 173.971 Q129.867 171.911 129.867 168.948 Q129.867 164.804 132.807 162.397 Q135.769 159.989 140.908 159.989 Q146.07 159.989 149.01 162.397 Q151.95 164.804 151.95 168.948 Q151.95 171.911 150.26 173.971 Q148.593 176.031 145.607 176.772 Q148.987 177.559 150.862 179.85 Q152.76 182.142 152.76 185.452 Q152.76 190.475 149.681 193.161 Q146.626 195.846 140.908 195.846 Q135.191 195.846 132.112 193.161 Q129.057 190.475 129.057 185.452 Q129.057 182.142 130.955 179.85 Q132.853 177.559 136.232 176.772 M134.519 169.388 Q134.519 172.073 136.186 173.577 Q137.876 175.082 140.908 175.082 Q143.918 175.082 145.607 173.577 Q147.32 172.073 147.32 169.388 Q147.32 166.702 145.607 165.198 Q143.918 163.693 140.908 163.693 Q137.876 163.693 136.186 165.198 Q134.519 166.702 134.519 169.388 Z" fill="#000000" fill-rule="nonzero" fill-opacity="1" /><polyline clip-path="url(#clip572)" style="stroke:#009af9; stroke-linecap:round; stroke-linejoin:round; stroke-width:4; stroke-opacity:1; fill:none" points="182.76,173.603 200.639,189.565 218.518,205.498 236.396,221.374 254.275,237.166 272.154,252.85 290.033,268.399 307.911,283.791 325.79,299.004 343.669,314.016 361.548,328.809 379.426,343.363 397.305,357.662 415.184,371.691 433.063,385.436 450.941,398.883 468.82,412.021 486.699,424.84 504.578,437.331 522.456,449.486 540.335,461.3 558.214,472.767 576.093,483.884 593.971,494.647 611.85,505.054 629.729,515.106 647.607,524.802 665.486,534.144 683.365,543.134 701.244,551.774 719.122,560.07 737.001,568.024 754.88,575.642 772.759,582.93 790.637,589.895 808.516,596.542 826.395,602.879 844.274,608.915 862.152,614.656 880.031,620.111 897.91,625.288 915.789,630.196 933.667,634.845 951.546,639.242 969.425,643.398 987.304,647.32 1005.18,651.018 1023.06,654.501 1040.94,657.779 1058.82,660.859 1076.7,663.751 1094.58,666.463 1112.45,669.004 1130.33,671.382 1148.21,673.605 1166.09,675.681 1183.97,677.618 1201.85,679.423 1219.73,681.103 1237.61,682.666 1255.48,684.118 1273.36,685.466 1291.24,686.715 1309.12,687.872 1327,688.942 1344.88,689.932 1362.76,690.845 1380.64,691.688 1398.51,692.465 1416.39,693.179 1434.27,693.837 1452.15,694.44 1470.03,694.994 1487.91,695.502 1505.79,695.968 1523.67,696.393 1541.54,696.782 1559.42,697.138 1577.3,697.462 1595.18,697.757 1613.06,698.026 1630.94,698.27 1648.82,698.492 1666.7,698.694 1684.57,698.877 1702.45,699.042 1720.33,699.192 1738.21,699.328 1756.09,699.45 1773.97,699.56 1791.85,699.66 1809.73,699.75 1827.6,699.83 1845.48,699.903 1863.36,699.968 1881.24,700.026 1899.12,700.078 1917,700.125 1934.88,700.167 1952.76,700.204 "/>
<path clip-path="url(#clip572)" d="M1166.09 675.681 L1183.97 677.618 L1201.85 679.423 L1219.73 681.103 L1237.61 682.666 L1255.48 684.118 L1273.36 685.466 L1291.24 686.715 L1309.12 687.872 L1327 688.942 L1344.88 689.932 L1362.76 690.845 L1380.64 691.688 L1398.51 692.465 L1416.39 693.179 L1434.27 693.837 L1452.15 694.44 L1470.03 694.994 L1487.91 695.502 L1505.79 695.968 L1523.67 696.393 L1541.54 696.782 L1559.42 697.138 L1577.3 697.462 L1595.18 697.757 L1613.06 698.026 L1630.94 698.27 L1648.82 698.492 L1666.7 698.694 L1684.57 698.877 L1702.45 699.042 L1720.33 699.192 L1738.21 699.328 L1756.09 699.45 L1773.97 699.56 L1791.85 699.66 L1809.73 699.75 L1827.6 699.83 L1845.48 699.903 L1863.36 699.968 L1881.24 700.026 L1899.12 700.078 L1917 700.125 L1934.88 700.167 L1952.76 700.204 L1952.76 700.496 L1934.88 700.496 L1917 700.496 L1899.12 700.496 L1881.24 700.496 L1863.36 700.496 L1845.48 700.496 L1827.6 700.496 L1809.73 700.496 L1791.85 700.496 L1773.97 700.496 L1756.09 700.496 L1738.21 700.496 L1720.33 700.496 L1702.45 700.496 L1684.57 700.496 L1666.7 700.496 L1648.82 700.496 L1630.94 700.496 L1613.06 700.496 L1595.18 700.496 L1577.3 700.496 L1559.42 700.496 L1541.54 700.496 L1523.67 700.496 L1505.79 700.496 L1487.91 700.496 L1470.03 700.496 L1452.15 700.496 L1434.27 700.496 L1416.39 700.496 L1398.51 700.496 L1380.64 700.496 L1362.76 700.496 L1344.88 700.496 L1327 700.496 L1309.12 700.496 L1291.24 700.496 L1273.36 700.496 L1255.48 700.496 L1237.61 700.496 L1219.73 700.496 L1201.85 700.496 L1183.97 700.496 L1166.09 700.496  Z" fill="#ff0000" fill-rule="evenodd" fill-opacity="1"/>
<polyline clip-path="url(#clip572)" style="stroke:#e26f46; stroke-linecap:round; stroke-linejoin:round; stroke-width:4; stroke-opacity:1; fill:none" points="1166.09,675.681 1183.97,677.618 1201.85,679.423 1219.73,681.103 1237.61,682.666 1255.48,684.118 1273.36,685.466 1291.24,686.715 1309.12,687.872 1327,688.942 1344.88,689.932 1362.76,690.845 1380.64,691.688 1398.51,692.465 1416.39,693.179 1434.27,693.837 1452.15,694.44 1470.03,694.994 1487.91,695.502 1505.79,695.968 1523.67,696.393 1541.54,696.782 1559.42,697.138 1577.3,697.462 1595.18,697.757 1613.06,698.026 1630.94,698.27 1648.82,698.492 1666.7,698.694 1684.57,698.877 1702.45,699.042 1720.33,699.192 1738.21,699.328 1756.09,699.45 1773.97,699.56 1791.85,699.66 1809.73,699.75 1827.6,699.83 1845.48,699.903 1863.36,699.968 1881.24,700.026 1899.12,700.078 1917,700.125 1934.88,700.167 1952.76,700.204 "/>
<defs>
  <pattern id="pattern1" patternUnits="userSpaceOnUse" x="0" y="0" width="32" height="32">
<g transform="scale(4)"><path d="M-4,4 l8,8 M-4,-4 l16,16 M4,-4 l8,8" style="stroke:#ff0000; stroke-width:1; stroke-opacity:1"/></g></pattern>
</defs>
<path clip-path="url(#clip572)" d="M576.093 483.884 L593.971 494.647 L611.85 505.054 L629.729 515.106 L647.607 524.802 L665.486 534.144 L683.365 543.134 L701.244 551.774 L719.122 560.07 L737.001 568.024 L754.88 575.642 L772.759 582.93 L790.637 589.895 L808.516 596.542 L826.395 602.879 L844.274 608.915 L862.152 614.656 L880.031 620.111 L897.91 625.288 L915.789 630.196 L933.667 634.845 L951.546 639.242 L969.425 643.398 L987.304 647.32 L1005.18 651.018 L1023.06 654.501 L1040.94 657.779 L1058.82 660.859 L1076.7 663.751 L1094.58 666.463 L1112.45 669.004 L1130.33 671.382 L1148.21 673.605 L1166.09 675.681 L1166.09 700.496 L1148.21 700.496 L1130.33 700.496 L1112.45 700.496 L1094.58 700.496 L1076.7 700.496 L1058.82 700.496 L1040.94 700.496 L1023.06 700.496 L1005.18 700.496 L987.304 700.496 L969.425 700.496 L951.546 700.496 L933.667 700.496 L915.789 700.496 L897.91 700.496 L880.031 700.496 L862.152 700.496 L844.274 700.496 L826.395 700.496 L808.516 700.496 L790.637 700.496 L772.759 700.496 L754.88 700.496 L737.001 700.496 L719.122 700.496 L701.244 700.496 L683.365 700.496 L665.486 700.496 L647.607 700.496 L629.729 700.496 L611.85 700.496 L593.971 700.496 L576.093 700.496  Z" fill="url(#pattern1)"/>
<polyline clip-path="url(#clip572)" style="stroke:#ff0000; stroke-linecap:round; stroke-linejoin:round; stroke-width:4; stroke-opacity:1; fill:none" points="576.093,483.884 593.971,494.647 611.85,505.054 629.729,515.106 647.607,524.802 665.486,534.144 683.365,543.134 701.244,551.774 719.122,560.07 737.001,568.024 754.88,575.642 772.759,582.93 790.637,589.895 808.516,596.542 826.395,602.879 844.274,608.915 862.152,614.656 880.031,620.111 897.91,625.288 915.789,630.196 933.667,634.845 951.546,639.242 969.425,643.398 987.304,647.32 1005.18,651.018 1023.06,654.501 1040.94,657.779 1058.82,660.859 1076.7,663.751 1094.58,666.463 1112.45,669.004 1130.33,671.382 1148.21,673.605 1166.09,675.681 "/>
<defs>
  <pattern id="pattern2" patternUnits="userSpaceOnUse" x="0" y="0" width="32" height="32">
<g transform="scale(4)"><path d="M-4,4 l8,-8 M4,12 l8,-8 M-4,12 l16,-16" style="stroke:#000000; stroke-width:1; stroke-opacity:1"/></g></pattern>
</defs>
<path clip-path="url(#clip572)" d="M576.093 675.681 L576.093 483.884 L1166.09 675.681 L576.093 675.681 L576.093 675.681  Z" fill="url(#pattern2)"/>
<polyline clip-path="url(#clip572)" style="stroke:#000000; stroke-linecap:round; stroke-linejoin:round; stroke-width:2; stroke-opacity:1; fill:none" points="576.093,675.681 576.093,483.884 1166.09,675.681 576.093,675.681 "/>
<path clip-path="url(#clip570)" d="M1085.39 328.219 L1893.76 328.219 L1893.76 69.0192 L1085.39 69.0192  Z" fill="#ffffff" fill-rule="evenodd" fill-opacity="1"/>
<polyline clip-path="url(#clip570)" style="stroke:#000000; stroke-linecap:round; stroke-linejoin:round; stroke-width:4; stroke-opacity:1; fill:none" points="1085.39,328.219 1893.76,328.219 1893.76,69.0192 1085.39,69.0192 1085.39,328.219 "/>
<polyline clip-path="url(#clip570)" style="stroke:#009af9; stroke-linecap:round; stroke-linejoin:round; stroke-width:4; stroke-opacity:1; fill:none" points="1105.06,120.859 1223.06,120.859 "/>
<path clip-path="url(#clip570)" d="M1242.73 103.579 L1271.96 103.579 L1271.96 107.514 L1259.69 107.514 L1259.69 138.139 L1255 138.139 L1255 107.514 L1242.73 107.514 L1242.73 103.579 Z" fill="#000000" fill-rule="nonzero" fill-opacity="1" /><path clip-path="url(#clip570)" d="M1280.23 125.107 Q1275.06 125.107 1273.07 126.287 Q1271.08 127.468 1271.08 130.315 Q1271.08 132.584 1272.56 133.926 Q1274.07 135.246 1276.64 135.246 Q1280.18 135.246 1282.31 132.746 Q1284.46 130.223 1284.46 126.056 L1284.46 125.107 L1280.23 125.107 M1288.72 123.348 L1288.72 138.139 L1284.46 138.139 L1284.46 134.204 Q1283 136.565 1280.83 137.699 Q1278.65 138.81 1275.5 138.81 Q1271.52 138.81 1269.16 136.588 Q1266.82 134.343 1266.82 130.593 Q1266.82 126.218 1269.74 123.996 Q1272.68 121.774 1278.49 121.774 L1284.46 121.774 L1284.46 121.357 Q1284.46 118.417 1282.52 116.82 Q1280.6 115.199 1277.1 115.199 Q1274.88 115.199 1272.77 115.732 Q1270.67 116.264 1268.72 117.329 L1268.72 113.394 Q1271.06 112.491 1273.26 112.051 Q1275.46 111.588 1277.54 111.588 Q1283.17 111.588 1285.94 114.505 Q1288.72 117.422 1288.72 123.348 Z" fill="#000000" fill-rule="nonzero" fill-opacity="1" /><path clip-path="url(#clip570)" d="M1297.5 112.213 L1301.75 112.213 L1301.75 138.139 L1297.5 138.139 L1297.5 112.213 M1297.5 102.121 L1301.75 102.121 L1301.75 107.514 L1297.5 107.514 L1297.5 102.121 Z" fill="#000000" fill-rule="nonzero" fill-opacity="1" /><path clip-path="url(#clip570)" d="M1310.67 102.121 L1314.93 102.121 L1314.93 138.139 L1310.67 138.139 L1310.67 102.121 Z" fill="#000000" fill-rule="nonzero" fill-opacity="1" /><path clip-path="url(#clip570)" d="M1343.03 134.25 L1343.03 148 L1338.75 148 L1338.75 112.213 L1343.03 112.213 L1343.03 116.149 Q1344.37 113.834 1346.41 112.723 Q1348.47 111.588 1351.31 111.588 Q1356.04 111.588 1358.98 115.338 Q1361.94 119.088 1361.94 125.199 Q1361.94 131.31 1358.98 135.06 Q1356.04 138.81 1351.31 138.81 Q1348.47 138.81 1346.41 137.699 Q1344.37 136.565 1343.03 134.25 M1357.52 125.199 Q1357.52 120.5 1355.57 117.838 Q1353.65 115.153 1350.27 115.153 Q1346.89 115.153 1344.95 117.838 Q1343.03 120.5 1343.03 125.199 Q1343.03 129.898 1344.95 132.584 Q1346.89 135.246 1350.27 135.246 Q1353.65 135.246 1355.57 132.584 Q1357.52 129.898 1357.52 125.199 Z" fill="#000000" fill-rule="nonzero" fill-opacity="1" /><path clip-path="url(#clip570)" d="M1384.02 116.195 Q1383.31 115.778 1382.45 115.593 Q1381.62 115.385 1380.6 115.385 Q1376.99 115.385 1375.04 117.746 Q1373.12 120.084 1373.12 124.482 L1373.12 138.139 L1368.84 138.139 L1368.84 112.213 L1373.12 112.213 L1373.12 116.241 Q1374.46 113.88 1376.62 112.746 Q1378.77 111.588 1381.85 111.588 Q1382.29 111.588 1382.82 111.658 Q1383.35 111.704 1384 111.82 L1384.02 116.195 Z" fill="#000000" fill-rule="nonzero" fill-opacity="1" /><path clip-path="url(#clip570)" d="M1397.49 115.199 Q1394.07 115.199 1392.08 117.885 Q1390.09 120.547 1390.09 125.199 Q1390.09 129.852 1392.05 132.537 Q1394.05 135.199 1397.49 135.199 Q1400.9 135.199 1402.89 132.514 Q1404.88 129.829 1404.88 125.199 Q1404.88 120.593 1402.89 117.908 Q1400.9 115.199 1397.49 115.199 M1397.49 111.588 Q1403.05 111.588 1406.22 115.199 Q1409.39 118.811 1409.39 125.199 Q1409.39 131.565 1406.22 135.199 Q1403.05 138.81 1397.49 138.81 Q1391.92 138.81 1388.74 135.199 Q1385.6 131.565 1385.6 125.199 Q1385.6 118.811 1388.74 115.199 Q1391.92 111.588 1397.49 111.588 Z" fill="#000000" fill-rule="nonzero" fill-opacity="1" /><path clip-path="url(#clip570)" d="M1435.06 125.199 Q1435.06 120.5 1433.12 117.838 Q1431.2 115.153 1427.82 115.153 Q1424.44 115.153 1422.49 117.838 Q1420.57 120.5 1420.57 125.199 Q1420.57 129.898 1422.49 132.584 Q1424.44 135.246 1427.82 135.246 Q1431.2 135.246 1433.12 132.584 Q1435.06 129.898 1435.06 125.199 M1420.57 116.149 Q1421.92 113.834 1423.95 112.723 Q1426.01 111.588 1428.86 111.588 Q1433.58 111.588 1436.52 115.338 Q1439.49 119.088 1439.49 125.199 Q1439.49 131.31 1436.52 135.06 Q1433.58 138.81 1428.86 138.81 Q1426.01 138.81 1423.95 137.699 Q1421.92 136.565 1420.57 134.25 L1420.57 138.139 L1416.29 138.139 L1416.29 102.121 L1420.57 102.121 L1420.57 116.149 Z" fill="#000000" fill-rule="nonzero" fill-opacity="1" /><path clip-path="url(#clip570)" d="M1458.33 125.107 Q1453.17 125.107 1451.18 126.287 Q1449.18 127.468 1449.18 130.315 Q1449.18 132.584 1450.67 133.926 Q1452.17 135.246 1454.74 135.246 Q1458.28 135.246 1460.41 132.746 Q1462.56 130.223 1462.56 126.056 L1462.56 125.107 L1458.33 125.107 M1466.82 123.348 L1466.82 138.139 L1462.56 138.139 L1462.56 134.204 Q1461.11 136.565 1458.93 137.699 Q1456.75 138.81 1453.61 138.81 Q1449.62 138.81 1447.26 136.588 Q1444.93 134.343 1444.93 130.593 Q1444.93 126.218 1447.84 123.996 Q1450.78 121.774 1456.59 121.774 L1462.56 121.774 L1462.56 121.357 Q1462.56 118.417 1460.62 116.82 Q1458.7 115.199 1455.2 115.199 Q1452.98 115.199 1450.87 115.732 Q1448.77 116.264 1446.82 117.329 L1446.82 113.394 Q1449.16 112.491 1451.36 112.051 Q1453.56 111.588 1455.64 111.588 Q1461.27 111.588 1464.05 114.505 Q1466.82 117.422 1466.82 123.348 Z" fill="#000000" fill-rule="nonzero" fill-opacity="1" /><path clip-path="url(#clip570)" d="M1494.21 125.199 Q1494.21 120.5 1492.26 117.838 Q1490.34 115.153 1486.96 115.153 Q1483.58 115.153 1481.64 117.838 Q1479.72 120.5 1479.72 125.199 Q1479.72 129.898 1481.64 132.584 Q1483.58 135.246 1486.96 135.246 Q1490.34 135.246 1492.26 132.584 Q1494.21 129.898 1494.21 125.199 M1479.72 116.149 Q1481.06 113.834 1483.1 112.723 Q1485.16 111.588 1488 111.588 Q1492.73 111.588 1495.67 115.338 Q1498.63 119.088 1498.63 125.199 Q1498.63 131.31 1495.67 135.06 Q1492.73 138.81 1488 138.81 Q1485.16 138.81 1483.1 137.699 Q1481.06 136.565 1479.72 134.25 L1479.72 138.139 L1475.43 138.139 L1475.43 102.121 L1479.72 102.121 L1479.72 116.149 Z" fill="#000000" fill-rule="nonzero" fill-opacity="1" /><path clip-path="url(#clip570)" d="M1505.69 112.213 L1509.95 112.213 L1509.95 138.139 L1505.69 138.139 L1505.69 112.213 M1505.69 102.121 L1509.95 102.121 L1509.95 107.514 L1505.69 107.514 L1505.69 102.121 Z" fill="#000000" fill-rule="nonzero" fill-opacity="1" /><path clip-path="url(#clip570)" d="M1518.86 102.121 L1523.12 102.121 L1523.12 138.139 L1518.86 138.139 L1518.86 102.121 Z" fill="#000000" fill-rule="nonzero" fill-opacity="1" /><path clip-path="url(#clip570)" d="M1532.03 112.213 L1536.29 112.213 L1536.29 138.139 L1532.03 138.139 L1532.03 112.213 M1532.03 102.121 L1536.29 102.121 L1536.29 107.514 L1532.03 107.514 L1532.03 102.121 Z" fill="#000000" fill-rule="nonzero" fill-opacity="1" /><path clip-path="url(#clip570)" d="M1549.42 104.852 L1549.42 112.213 L1558.19 112.213 L1558.19 115.524 L1549.42 115.524 L1549.42 129.598 Q1549.42 132.769 1550.27 133.672 Q1551.15 134.574 1553.81 134.574 L1558.19 134.574 L1558.19 138.139 L1553.81 138.139 Q1548.88 138.139 1547.01 136.31 Q1545.13 134.459 1545.13 129.598 L1545.13 115.524 L1542.01 115.524 L1542.01 112.213 L1545.13 112.213 L1545.13 104.852 L1549.42 104.852 Z" fill="#000000" fill-rule="nonzero" fill-opacity="1" /><path clip-path="url(#clip570)" d="M1574.58 140.547 Q1572.77 145.176 1571.06 146.588 Q1569.35 148 1566.48 148 L1563.07 148 L1563.07 144.435 L1565.57 144.435 Q1567.33 144.435 1568.3 143.602 Q1569.28 142.769 1570.46 139.667 L1571.22 137.722 L1560.73 112.213 L1565.25 112.213 L1573.35 132.491 L1581.45 112.213 L1585.97 112.213 L1574.58 140.547 Z" fill="#000000" fill-rule="nonzero" fill-opacity="1" /><path clip-path="url(#clip570)" d="M1105.06 193.435 L1223.06 193.435 L1223.06 151.963 L1105.06 151.963 L1105.06 193.435  Z" fill="#ff0000" fill-rule="evenodd" fill-opacity="1"/>
<polyline clip-path="url(#clip570)" style="stroke:#e26f46; stroke-linecap:round; stroke-linejoin:round; stroke-width:4; stroke-opacity:1; fill:none" points="1105.06,151.963 1223.06,151.963 "/>
<path clip-path="url(#clip570)" d="M1258.75 158.59 Q1253.65 158.59 1250.64 162.387 Q1247.66 166.183 1247.66 172.734 Q1247.66 179.262 1250.64 183.058 Q1253.65 186.854 1258.75 186.854 Q1263.84 186.854 1266.8 183.058 Q1269.79 179.262 1269.79 172.734 Q1269.79 166.183 1266.8 162.387 Q1263.84 158.59 1258.75 158.59 M1258.75 154.794 Q1266.01 154.794 1270.37 159.678 Q1274.72 164.539 1274.72 172.734 Q1274.72 180.905 1270.37 185.789 Q1266.01 190.65 1258.75 190.65 Q1251.45 190.65 1247.08 185.789 Q1242.73 180.928 1242.73 172.734 Q1242.73 164.539 1247.08 159.678 Q1251.45 154.794 1258.75 154.794 Z" fill="#000000" fill-rule="nonzero" fill-opacity="1" /><path clip-path="url(#clip570)" d="M1281.41 179.748 L1281.41 164.053 L1285.67 164.053 L1285.67 179.586 Q1285.67 183.266 1287.1 185.118 Q1288.54 186.947 1291.41 186.947 Q1294.86 186.947 1296.85 184.748 Q1298.86 182.549 1298.86 178.752 L1298.86 164.053 L1303.12 164.053 L1303.12 189.979 L1298.86 189.979 L1298.86 185.998 Q1297.31 188.359 1295.25 189.516 Q1293.21 190.65 1290.5 190.65 Q1286.04 190.65 1283.72 187.873 Q1281.41 185.095 1281.41 179.748 M1292.12 163.428 L1292.12 163.428 Z" fill="#000000" fill-rule="nonzero" fill-opacity="1" /><path clip-path="url(#clip570)" d="M1316.11 156.692 L1316.11 164.053 L1324.88 164.053 L1324.88 167.364 L1316.11 167.364 L1316.11 181.438 Q1316.11 184.609 1316.96 185.512 Q1317.84 186.414 1320.5 186.414 L1324.88 186.414 L1324.88 189.979 L1320.5 189.979 Q1315.57 189.979 1313.7 188.15 Q1311.82 186.299 1311.82 181.438 L1311.82 167.364 L1308.7 167.364 L1308.7 164.053 L1311.82 164.053 L1311.82 156.692 L1316.11 156.692 Z" fill="#000000" fill-rule="nonzero" fill-opacity="1" /><path clip-path="url(#clip570)" d="M1330.48 153.961 L1334.74 153.961 L1334.74 189.979 L1330.48 189.979 L1330.48 153.961 Z" fill="#000000" fill-rule="nonzero" fill-opacity="1" /><path clip-path="url(#clip570)" d="M1343.65 164.053 L1347.91 164.053 L1347.91 189.979 L1343.65 189.979 L1343.65 164.053 M1343.65 153.961 L1347.91 153.961 L1347.91 159.354 L1343.65 159.354 L1343.65 153.961 Z" fill="#000000" fill-rule="nonzero" fill-opacity="1" /><path clip-path="url(#clip570)" d="M1379 175.951 L1379 178.035 L1359.42 178.035 Q1359.69 182.433 1362.06 184.748 Q1364.44 187.039 1368.68 187.039 Q1371.13 187.039 1373.42 186.438 Q1375.74 185.836 1378 184.632 L1378 188.66 Q1375.71 189.632 1373.31 190.141 Q1370.9 190.65 1368.42 190.65 Q1362.22 190.65 1358.58 187.039 Q1354.97 183.428 1354.97 177.271 Q1354.97 170.905 1358.4 167.178 Q1361.85 163.428 1367.68 163.428 Q1372.91 163.428 1375.94 166.808 Q1379 170.164 1379 175.951 M1374.74 174.701 Q1374.69 171.206 1372.77 169.123 Q1370.87 167.039 1367.73 167.039 Q1364.16 167.039 1362.01 169.053 Q1359.88 171.067 1359.56 174.725 L1374.74 174.701 Z" fill="#000000" fill-rule="nonzero" fill-opacity="1" /><path clip-path="url(#clip570)" d="M1401.01 168.035 Q1400.3 167.618 1399.44 167.433 Q1398.61 167.225 1397.59 167.225 Q1393.98 167.225 1392.03 169.586 Q1390.11 171.924 1390.11 176.322 L1390.11 189.979 L1385.83 189.979 L1385.83 164.053 L1390.11 164.053 L1390.11 168.081 Q1391.45 165.72 1393.61 164.586 Q1395.76 163.428 1398.84 163.428 Q1399.28 163.428 1399.81 163.498 Q1400.34 163.544 1400.99 163.66 L1401.01 168.035 Z" fill="#000000" fill-rule="nonzero" fill-opacity="1" /><path clip-path="url(#clip570)" d="M1440.74 169.03 Q1442.33 166.16 1444.55 164.794 Q1446.78 163.428 1449.79 163.428 Q1453.84 163.428 1456.04 166.276 Q1458.24 169.1 1458.24 174.331 L1458.24 189.979 L1453.95 189.979 L1453.95 174.47 Q1453.95 170.743 1452.63 168.938 Q1451.31 167.132 1448.61 167.132 Q1445.3 167.132 1443.37 169.331 Q1441.45 171.53 1441.45 175.326 L1441.45 189.979 L1437.17 189.979 L1437.17 174.47 Q1437.17 170.72 1435.85 168.938 Q1434.53 167.132 1431.78 167.132 Q1428.51 167.132 1426.59 169.354 Q1424.67 171.553 1424.67 175.326 L1424.67 189.979 L1420.39 189.979 L1420.39 164.053 L1424.67 164.053 L1424.67 168.081 Q1426.13 165.697 1428.17 164.563 Q1430.2 163.428 1433 163.428 Q1435.83 163.428 1437.8 164.864 Q1439.79 166.299 1440.74 169.03 Z" fill="#000000" fill-rule="nonzero" fill-opacity="1" /><path clip-path="url(#clip570)" d="M1488.91 175.951 L1488.91 178.035 L1469.32 178.035 Q1469.6 182.433 1471.96 184.748 Q1474.35 187.039 1478.58 187.039 Q1481.04 187.039 1483.33 186.438 Q1485.64 185.836 1487.91 184.632 L1487.91 188.66 Q1485.62 189.632 1483.21 190.141 Q1480.8 190.65 1478.33 190.65 Q1472.12 190.65 1468.49 187.039 Q1464.88 183.428 1464.88 177.271 Q1464.88 170.905 1468.3 167.178 Q1471.75 163.428 1477.59 163.428 Q1482.82 163.428 1485.85 166.808 Q1488.91 170.164 1488.91 175.951 M1484.65 174.701 Q1484.6 171.206 1482.68 169.123 Q1480.78 167.039 1477.63 167.039 Q1474.07 167.039 1471.92 169.053 Q1469.79 171.067 1469.46 174.725 L1484.65 174.701 Z" fill="#000000" fill-rule="nonzero" fill-opacity="1" /><path clip-path="url(#clip570)" d="M1507.68 176.947 Q1502.52 176.947 1500.53 178.127 Q1498.54 179.308 1498.54 182.155 Q1498.54 184.424 1500.02 185.766 Q1501.52 187.086 1504.09 187.086 Q1507.63 187.086 1509.76 184.586 Q1511.92 182.063 1511.92 177.896 L1511.92 176.947 L1507.68 176.947 M1516.17 175.188 L1516.17 189.979 L1511.92 189.979 L1511.92 186.044 Q1510.46 188.405 1508.28 189.539 Q1506.11 190.65 1502.96 190.65 Q1498.98 190.65 1496.61 188.428 Q1494.28 186.183 1494.28 182.433 Q1494.28 178.058 1497.19 175.836 Q1500.13 173.614 1505.94 173.614 L1511.92 173.614 L1511.92 173.197 Q1511.92 170.257 1509.97 168.66 Q1508.05 167.039 1504.55 167.039 Q1502.33 167.039 1500.23 167.572 Q1498.12 168.104 1496.17 169.169 L1496.17 165.234 Q1498.51 164.331 1500.71 163.891 Q1502.91 163.428 1504.99 163.428 Q1510.62 163.428 1513.4 166.345 Q1516.17 169.262 1516.17 175.188 Z" fill="#000000" fill-rule="nonzero" fill-opacity="1" /><path clip-path="url(#clip570)" d="M1541.48 164.817 L1541.48 168.845 Q1539.67 167.919 1537.73 167.456 Q1535.78 166.993 1533.7 166.993 Q1530.53 166.993 1528.93 167.965 Q1527.36 168.938 1527.36 170.882 Q1527.36 172.364 1528.49 173.22 Q1529.62 174.053 1533.05 174.817 L1534.51 175.141 Q1539.04 176.113 1540.94 177.896 Q1542.86 179.655 1542.86 182.826 Q1542.86 186.438 1539.99 188.544 Q1537.15 190.65 1532.15 190.65 Q1530.06 190.65 1527.79 190.234 Q1525.55 189.84 1523.05 189.03 L1523.05 184.632 Q1525.41 185.859 1527.7 186.484 Q1529.99 187.086 1532.24 187.086 Q1535.25 187.086 1536.87 186.067 Q1538.49 185.025 1538.49 183.15 Q1538.49 181.414 1537.31 180.488 Q1536.15 179.563 1532.19 178.706 L1530.71 178.359 Q1526.75 177.526 1524.99 175.813 Q1523.23 174.076 1523.23 171.067 Q1523.23 167.41 1525.83 165.419 Q1528.42 163.428 1533.19 163.428 Q1535.55 163.428 1537.63 163.776 Q1539.72 164.123 1541.48 164.817 Z" fill="#000000" fill-rule="nonzero" fill-opacity="1" /><path clip-path="url(#clip570)" d="M1549.21 179.748 L1549.21 164.053 L1553.47 164.053 L1553.47 179.586 Q1553.47 183.266 1554.9 185.118 Q1556.34 186.947 1559.21 186.947 Q1562.66 186.947 1564.65 184.748 Q1566.66 182.549 1566.66 178.752 L1566.66 164.053 L1570.92 164.053 L1570.92 189.979 L1566.66 189.979 L1566.66 185.998 Q1565.11 188.359 1563.05 189.516 Q1561.01 190.65 1558.3 190.65 Q1553.84 190.65 1551.52 187.873 Q1549.21 185.095 1549.21 179.748 M1559.92 163.428 L1559.92 163.428 Z" fill="#000000" fill-rule="nonzero" fill-opacity="1" /><path clip-path="url(#clip570)" d="M1594.72 168.035 Q1594 167.618 1593.14 167.433 Q1592.31 167.225 1591.29 167.225 Q1587.68 167.225 1585.73 169.586 Q1583.81 171.924 1583.81 176.322 L1583.81 189.979 L1579.53 189.979 L1579.53 164.053 L1583.81 164.053 L1583.81 168.081 Q1585.16 165.72 1587.31 164.586 Q1589.46 163.428 1592.54 163.428 Q1592.98 163.428 1593.51 163.498 Q1594.04 163.544 1594.69 163.66 L1594.72 168.035 Z" fill="#000000" fill-rule="nonzero" fill-opacity="1" /><path clip-path="url(#clip570)" d="M1620.32 175.951 L1620.32 178.035 L1600.73 178.035 Q1601.01 182.433 1603.37 184.748 Q1605.76 187.039 1609.99 187.039 Q1612.45 187.039 1614.74 186.438 Q1617.05 185.836 1619.32 184.632 L1619.32 188.66 Q1617.03 189.632 1614.62 190.141 Q1612.22 190.65 1609.74 190.65 Q1603.54 190.65 1599.9 187.039 Q1596.29 183.428 1596.29 177.271 Q1596.29 170.905 1599.72 167.178 Q1603.16 163.428 1609 163.428 Q1614.23 163.428 1617.26 166.808 Q1620.32 170.164 1620.32 175.951 M1616.06 174.701 Q1616.01 171.206 1614.09 169.123 Q1612.19 167.039 1609.04 167.039 Q1605.48 167.039 1603.33 169.053 Q1601.2 171.067 1600.87 174.725 L1616.06 174.701 Z" fill="#000000" fill-rule="nonzero" fill-opacity="1" /><defs>
  <pattern id="pattern3" patternUnits="userSpaceOnUse" x="0" y="0" width="32" height="32">
<g transform="scale(4)"><path d="M-4,4 l8,8 M-4,-4 l16,16 M4,-4 l8,8" style="stroke:#ff0000; stroke-width:1; stroke-opacity:1"/></g></pattern>
</defs>
<path clip-path="url(#clip570)" d="M1105.06 245.275 L1223.06 245.275 L1223.06 203.803 L1105.06 203.803 L1105.06 245.275  Z" fill="url(#pattern3)"/>
<polyline clip-path="url(#clip570)" style="stroke:#ff0000; stroke-linecap:round; stroke-linejoin:round; stroke-width:4; stroke-opacity:1; fill:none" points="1105.06,203.803 1223.06,203.803 "/>
<path clip-path="url(#clip570)" d="M1258.75 210.43 Q1253.65 210.43 1250.64 214.227 Q1247.66 218.023 1247.66 224.574 Q1247.66 231.102 1250.64 234.898 Q1253.65 238.694 1258.75 238.694 Q1263.84 238.694 1266.8 234.898 Q1269.79 231.102 1269.79 224.574 Q1269.79 218.023 1266.8 214.227 Q1263.84 210.43 1258.75 210.43 M1258.75 206.634 Q1266.01 206.634 1270.37 211.518 Q1274.72 216.379 1274.72 224.574 Q1274.72 232.745 1270.37 237.629 Q1266.01 242.49 1258.75 242.49 Q1251.45 242.49 1247.08 237.629 Q1242.73 232.768 1242.73 224.574 Q1242.73 216.379 1247.08 211.518 Q1251.45 206.634 1258.75 206.634 Z" fill="#000000" fill-rule="nonzero" fill-opacity="1" /><path clip-path="url(#clip570)" d="M1281.41 231.588 L1281.41 215.893 L1285.67 215.893 L1285.67 231.426 Q1285.67 235.106 1287.1 236.958 Q1288.54 238.787 1291.41 238.787 Q1294.86 238.787 1296.85 236.588 Q1298.86 234.389 1298.86 230.592 L1298.86 215.893 L1303.12 215.893 L1303.12 241.819 L1298.86 241.819 L1298.86 237.838 Q1297.31 240.199 1295.25 241.356 Q1293.21 242.49 1290.5 242.49 Q1286.04 242.49 1283.72 239.713 Q1281.41 236.935 1281.41 231.588 M1292.12 215.268 L1292.12 215.268 Z" fill="#000000" fill-rule="nonzero" fill-opacity="1" /><path clip-path="url(#clip570)" d="M1316.11 208.532 L1316.11 215.893 L1324.88 215.893 L1324.88 219.204 L1316.11 219.204 L1316.11 233.278 Q1316.11 236.449 1316.96 237.352 Q1317.84 238.254 1320.5 238.254 L1324.88 238.254 L1324.88 241.819 L1320.5 241.819 Q1315.57 241.819 1313.7 239.99 Q1311.82 238.139 1311.82 233.278 L1311.82 219.204 L1308.7 219.204 L1308.7 215.893 L1311.82 215.893 L1311.82 208.532 L1316.11 208.532 Z" fill="#000000" fill-rule="nonzero" fill-opacity="1" /><path clip-path="url(#clip570)" d="M1330.48 205.801 L1334.74 205.801 L1334.74 241.819 L1330.48 241.819 L1330.48 205.801 Z" fill="#000000" fill-rule="nonzero" fill-opacity="1" /><path clip-path="url(#clip570)" d="M1343.65 215.893 L1347.91 215.893 L1347.91 241.819 L1343.65 241.819 L1343.65 215.893 M1343.65 205.801 L1347.91 205.801 L1347.91 211.194 L1343.65 211.194 L1343.65 205.801 Z" fill="#000000" fill-rule="nonzero" fill-opacity="1" /><path clip-path="url(#clip570)" d="M1379 227.791 L1379 229.875 L1359.42 229.875 Q1359.69 234.273 1362.06 236.588 Q1364.44 238.879 1368.68 238.879 Q1371.13 238.879 1373.42 238.278 Q1375.74 237.676 1378 236.472 L1378 240.5 Q1375.71 241.472 1373.31 241.981 Q1370.9 242.49 1368.42 242.49 Q1362.22 242.49 1358.58 238.879 Q1354.97 235.268 1354.97 229.111 Q1354.97 222.745 1358.4 219.018 Q1361.85 215.268 1367.68 215.268 Q1372.91 215.268 1375.94 218.648 Q1379 222.004 1379 227.791 M1374.74 226.541 Q1374.69 223.046 1372.77 220.963 Q1370.87 218.879 1367.73 218.879 Q1364.16 218.879 1362.01 220.893 Q1359.88 222.907 1359.56 226.565 L1374.74 226.541 Z" fill="#000000" fill-rule="nonzero" fill-opacity="1" /><path clip-path="url(#clip570)" d="M1401.01 219.875 Q1400.3 219.458 1399.44 219.273 Q1398.61 219.065 1397.59 219.065 Q1393.98 219.065 1392.03 221.426 Q1390.11 223.764 1390.11 228.162 L1390.11 241.819 L1385.83 241.819 L1385.83 215.893 L1390.11 215.893 L1390.11 219.921 Q1391.45 217.56 1393.61 216.426 Q1395.76 215.268 1398.84 215.268 Q1399.28 215.268 1399.81 215.338 Q1400.34 215.384 1400.99 215.5 L1401.01 219.875 Z" fill="#000000" fill-rule="nonzero" fill-opacity="1" /><path clip-path="url(#clip570)" d="M1440.74 220.87 Q1442.33 218 1444.55 216.634 Q1446.78 215.268 1449.79 215.268 Q1453.84 215.268 1456.04 218.116 Q1458.24 220.94 1458.24 226.171 L1458.24 241.819 L1453.95 241.819 L1453.95 226.31 Q1453.95 222.583 1452.63 220.778 Q1451.31 218.972 1448.61 218.972 Q1445.3 218.972 1443.37 221.171 Q1441.45 223.37 1441.45 227.166 L1441.45 241.819 L1437.17 241.819 L1437.17 226.31 Q1437.17 222.56 1435.85 220.778 Q1434.53 218.972 1431.78 218.972 Q1428.51 218.972 1426.59 221.194 Q1424.67 223.393 1424.67 227.166 L1424.67 241.819 L1420.39 241.819 L1420.39 215.893 L1424.67 215.893 L1424.67 219.921 Q1426.13 217.537 1428.17 216.403 Q1430.2 215.268 1433 215.268 Q1435.83 215.268 1437.8 216.704 Q1439.79 218.139 1440.74 220.87 Z" fill="#000000" fill-rule="nonzero" fill-opacity="1" /><path clip-path="url(#clip570)" d="M1488.91 227.791 L1488.91 229.875 L1469.32 229.875 Q1469.6 234.273 1471.96 236.588 Q1474.35 238.879 1478.58 238.879 Q1481.04 238.879 1483.33 238.278 Q1485.64 237.676 1487.91 236.472 L1487.91 240.5 Q1485.62 241.472 1483.21 241.981 Q1480.8 242.49 1478.33 242.49 Q1472.12 242.49 1468.49 238.879 Q1464.88 235.268 1464.88 229.111 Q1464.88 222.745 1468.3 219.018 Q1471.75 215.268 1477.59 215.268 Q1482.82 215.268 1485.85 218.648 Q1488.91 222.004 1488.91 227.791 M1484.65 226.541 Q1484.6 223.046 1482.68 220.963 Q1480.78 218.879 1477.63 218.879 Q1474.07 218.879 1471.92 220.893 Q1469.79 222.907 1469.46 226.565 L1484.65 226.541 Z" fill="#000000" fill-rule="nonzero" fill-opacity="1" /><path clip-path="url(#clip570)" d="M1507.68 228.787 Q1502.52 228.787 1500.53 229.967 Q1498.54 231.148 1498.54 233.995 Q1498.54 236.264 1500.02 237.606 Q1501.52 238.926 1504.09 238.926 Q1507.63 238.926 1509.76 236.426 Q1511.92 233.903 1511.92 229.736 L1511.92 228.787 L1507.68 228.787 M1516.17 227.028 L1516.17 241.819 L1511.92 241.819 L1511.92 237.884 Q1510.46 240.245 1508.28 241.379 Q1506.11 242.49 1502.96 242.49 Q1498.98 242.49 1496.61 240.268 Q1494.28 238.023 1494.28 234.273 Q1494.28 229.898 1497.19 227.676 Q1500.13 225.454 1505.94 225.454 L1511.92 225.454 L1511.92 225.037 Q1511.92 222.097 1509.97 220.5 Q1508.05 218.879 1504.55 218.879 Q1502.33 218.879 1500.23 219.412 Q1498.12 219.944 1496.17 221.009 L1496.17 217.074 Q1498.51 216.171 1500.71 215.731 Q1502.91 215.268 1504.99 215.268 Q1510.62 215.268 1513.4 218.185 Q1516.17 221.102 1516.17 227.028 Z" fill="#000000" fill-rule="nonzero" fill-opacity="1" /><path clip-path="url(#clip570)" d="M1541.48 216.657 L1541.48 220.685 Q1539.67 219.759 1537.73 219.296 Q1535.78 218.833 1533.7 218.833 Q1530.53 218.833 1528.93 219.805 Q1527.36 220.778 1527.36 222.722 Q1527.36 224.204 1528.49 225.06 Q1529.62 225.893 1533.05 226.657 L1534.51 226.981 Q1539.04 227.953 1540.94 229.736 Q1542.86 231.495 1542.86 234.666 Q1542.86 238.278 1539.99 240.384 Q1537.15 242.49 1532.15 242.49 Q1530.06 242.49 1527.79 242.074 Q1525.55 241.68 1523.05 240.87 L1523.05 236.472 Q1525.41 237.699 1527.7 238.324 Q1529.99 238.926 1532.24 238.926 Q1535.25 238.926 1536.87 237.907 Q1538.49 236.865 1538.49 234.99 Q1538.49 233.254 1537.31 232.328 Q1536.15 231.403 1532.19 230.546 L1530.71 230.199 Q1526.75 229.366 1524.99 227.653 Q1523.23 225.916 1523.23 222.907 Q1523.23 219.25 1525.83 217.259 Q1528.42 215.268 1533.19 215.268 Q1535.55 215.268 1537.63 215.616 Q1539.72 215.963 1541.48 216.657 Z" fill="#000000" fill-rule="nonzero" fill-opacity="1" /><path clip-path="url(#clip570)" d="M1549.21 231.588 L1549.21 215.893 L1553.47 215.893 L1553.47 231.426 Q1553.47 235.106 1554.9 236.958 Q1556.34 238.787 1559.21 238.787 Q1562.66 238.787 1564.65 236.588 Q1566.66 234.389 1566.66 230.592 L1566.66 215.893 L1570.92 215.893 L1570.92 241.819 L1566.66 241.819 L1566.66 237.838 Q1565.11 240.199 1563.05 241.356 Q1561.01 242.49 1558.3 242.49 Q1553.84 242.49 1551.52 239.713 Q1549.21 236.935 1549.21 231.588 M1559.92 215.268 L1559.92 215.268 Z" fill="#000000" fill-rule="nonzero" fill-opacity="1" /><path clip-path="url(#clip570)" d="M1594.72 219.875 Q1594 219.458 1593.14 219.273 Q1592.31 219.065 1591.29 219.065 Q1587.68 219.065 1585.73 221.426 Q1583.81 223.764 1583.81 228.162 L1583.81 241.819 L1579.53 241.819 L1579.53 215.893 L1583.81 215.893 L1583.81 219.921 Q1585.16 217.56 1587.31 216.426 Q1589.46 215.268 1592.54 215.268 Q1592.98 215.268 1593.51 215.338 Q1594.04 215.384 1594.69 215.5 L1594.72 219.875 Z" fill="#000000" fill-rule="nonzero" fill-opacity="1" /><path clip-path="url(#clip570)" d="M1620.32 227.791 L1620.32 229.875 L1600.73 229.875 Q1601.01 234.273 1603.37 236.588 Q1605.76 238.879 1609.99 238.879 Q1612.45 238.879 1614.74 238.278 Q1617.05 237.676 1619.32 236.472 L1619.32 240.5 Q1617.03 241.472 1614.62 241.981 Q1612.22 242.49 1609.74 242.49 Q1603.54 242.49 1599.9 238.879 Q1596.29 235.268 1596.29 229.111 Q1596.29 222.745 1599.72 219.018 Q1603.16 215.268 1609 215.268 Q1614.23 215.268 1617.26 218.648 Q1620.32 222.004 1620.32 227.791 M1616.06 226.541 Q1616.01 223.046 1614.09 220.963 Q1612.19 218.879 1609.04 218.879 Q1605.48 218.879 1603.33 220.893 Q1601.2 222.907 1600.87 226.565 L1616.06 226.541 Z" fill="#000000" fill-rule="nonzero" fill-opacity="1" /><path clip-path="url(#clip570)" d="M1659.44 219.829 L1659.44 205.801 L1663.7 205.801 L1663.7 241.819 L1659.44 241.819 L1659.44 237.93 Q1658.1 240.245 1656.04 241.379 Q1654 242.49 1651.13 242.49 Q1646.43 242.49 1643.47 238.74 Q1640.53 234.99 1640.53 228.879 Q1640.53 222.768 1643.47 219.018 Q1646.43 215.268 1651.13 215.268 Q1654 215.268 1656.04 216.403 Q1658.1 217.514 1659.44 219.829 M1644.92 228.879 Q1644.92 233.578 1646.85 236.264 Q1648.79 238.926 1652.17 238.926 Q1655.55 238.926 1657.49 236.264 Q1659.44 233.578 1659.44 228.879 Q1659.44 224.18 1657.49 221.518 Q1655.55 218.833 1652.17 218.833 Q1648.79 218.833 1646.85 221.518 Q1644.92 224.18 1644.92 228.879 Z" fill="#000000" fill-rule="nonzero" fill-opacity="1" /><path clip-path="url(#clip570)" d="M1672.47 215.893 L1676.73 215.893 L1676.73 241.819 L1672.47 241.819 L1672.47 215.893 M1672.47 205.801 L1676.73 205.801 L1676.73 211.194 L1672.47 211.194 L1672.47 205.801 Z" fill="#000000" fill-rule="nonzero" fill-opacity="1" /><path clip-path="url(#clip570)" d="M1698.77 205.801 L1698.77 209.342 L1694.69 209.342 Q1692.4 209.342 1691.5 210.268 Q1690.62 211.194 1690.62 213.602 L1690.62 215.893 L1697.63 215.893 L1697.63 219.204 L1690.62 219.204 L1690.62 241.819 L1686.34 241.819 L1686.34 219.204 L1682.26 219.204 L1682.26 215.893 L1686.34 215.893 L1686.34 214.088 Q1686.34 209.759 1688.35 207.792 Q1690.36 205.801 1694.74 205.801 L1698.77 205.801 Z" fill="#000000" fill-rule="nonzero" fill-opacity="1" /><path clip-path="url(#clip570)" d="M1715.46 205.801 L1715.46 209.342 L1711.38 209.342 Q1709.09 209.342 1708.19 210.268 Q1707.31 211.194 1707.31 213.602 L1707.31 215.893 L1714.32 215.893 L1714.32 219.204 L1707.31 219.204 L1707.31 241.819 L1703.03 241.819 L1703.03 219.204 L1698.95 219.204 L1698.95 215.893 L1703.03 215.893 L1703.03 214.088 Q1703.03 209.759 1705.04 207.792 Q1707.05 205.801 1711.43 205.801 L1715.46 205.801 Z" fill="#000000" fill-rule="nonzero" fill-opacity="1" /><path clip-path="url(#clip570)" d="M1741.2 227.791 L1741.2 229.875 L1721.61 229.875 Q1721.89 234.273 1724.25 236.588 Q1726.64 238.879 1730.87 238.879 Q1733.33 238.879 1735.62 238.278 Q1737.93 237.676 1740.2 236.472 L1740.2 240.5 Q1737.91 241.472 1735.5 241.981 Q1733.09 242.49 1730.62 242.49 Q1724.41 242.49 1720.78 238.879 Q1717.17 235.268 1717.17 229.111 Q1717.17 222.745 1720.59 219.018 Q1724.04 215.268 1729.88 215.268 Q1735.11 215.268 1738.14 218.648 Q1741.2 222.004 1741.2 227.791 M1736.94 226.541 Q1736.89 223.046 1734.97 220.963 Q1733.07 218.879 1729.92 218.879 Q1726.36 218.879 1724.21 220.893 Q1722.08 222.907 1721.75 226.565 L1736.94 226.541 Z" fill="#000000" fill-rule="nonzero" fill-opacity="1" /><path clip-path="url(#clip570)" d="M1763.21 219.875 Q1762.49 219.458 1761.64 219.273 Q1760.8 219.065 1759.78 219.065 Q1756.17 219.065 1754.23 221.426 Q1752.31 223.764 1752.31 228.162 L1752.31 241.819 L1748.03 241.819 L1748.03 215.893 L1752.31 215.893 L1752.31 219.921 Q1753.65 217.56 1755.8 216.426 Q1757.96 215.268 1761.03 215.268 Q1761.47 215.268 1762.01 215.338 Q1762.54 215.384 1763.19 215.5 L1763.21 219.875 Z" fill="#000000" fill-rule="nonzero" fill-opacity="1" /><path clip-path="url(#clip570)" d="M1788.81 227.791 L1788.81 229.875 L1769.23 229.875 Q1769.51 234.273 1771.87 236.588 Q1774.25 238.879 1778.49 238.879 Q1780.94 238.879 1783.23 238.278 Q1785.55 237.676 1787.82 236.472 L1787.82 240.5 Q1785.53 241.472 1783.12 241.981 Q1780.71 242.49 1778.23 242.49 Q1772.03 242.49 1768.4 238.879 Q1764.78 235.268 1764.78 229.111 Q1764.78 222.745 1768.21 219.018 Q1771.66 215.268 1777.49 215.268 Q1782.72 215.268 1785.76 218.648 Q1788.81 222.004 1788.81 227.791 M1784.55 226.541 Q1784.51 223.046 1782.59 220.963 Q1780.69 218.879 1777.54 218.879 Q1773.97 218.879 1771.82 220.893 Q1769.69 222.907 1769.37 226.565 L1784.55 226.541 Z" fill="#000000" fill-rule="nonzero" fill-opacity="1" /><path clip-path="url(#clip570)" d="M1817.35 226.171 L1817.35 241.819 L1813.09 241.819 L1813.09 226.31 Q1813.09 222.629 1811.66 220.801 Q1810.22 218.972 1807.35 218.972 Q1803.9 218.972 1801.91 221.171 Q1799.92 223.37 1799.92 227.166 L1799.92 241.819 L1795.64 241.819 L1795.64 215.893 L1799.92 215.893 L1799.92 219.921 Q1801.45 217.583 1803.51 216.426 Q1805.59 215.268 1808.3 215.268 Q1812.77 215.268 1815.06 218.046 Q1817.35 220.801 1817.35 226.171 Z" fill="#000000" fill-rule="nonzero" fill-opacity="1" /><path clip-path="url(#clip570)" d="M1844.51 216.889 L1844.51 220.87 Q1842.7 219.875 1840.87 219.389 Q1839.07 218.879 1837.21 218.879 Q1833.07 218.879 1830.78 221.518 Q1828.49 224.134 1828.49 228.879 Q1828.49 233.625 1830.78 236.264 Q1833.07 238.879 1837.21 238.879 Q1839.07 238.879 1840.87 238.393 Q1842.7 237.884 1844.51 236.889 L1844.51 240.824 Q1842.72 241.657 1840.8 242.074 Q1838.9 242.49 1836.75 242.49 Q1830.9 242.49 1827.45 238.81 Q1824 235.129 1824 228.879 Q1824 222.537 1827.47 218.903 Q1830.96 215.268 1837.03 215.268 Q1839 215.268 1840.87 215.685 Q1842.75 216.079 1844.51 216.889 Z" fill="#000000" fill-rule="nonzero" fill-opacity="1" /><path clip-path="url(#clip570)" d="M1874.09 227.791 L1874.09 229.875 L1854.51 229.875 Q1854.78 234.273 1857.15 236.588 Q1859.53 238.879 1863.77 238.879 Q1866.22 238.879 1868.51 238.278 Q1870.83 237.676 1873.09 236.472 L1873.09 240.5 Q1870.8 241.472 1868.4 241.981 Q1865.99 242.49 1863.51 242.49 Q1857.31 242.49 1853.67 238.879 Q1850.06 235.268 1850.06 229.111 Q1850.06 222.745 1853.49 219.018 Q1856.94 215.268 1862.77 215.268 Q1868 215.268 1871.03 218.648 Q1874.09 222.004 1874.09 227.791 M1869.83 226.541 Q1869.78 223.046 1867.86 220.963 Q1865.96 218.879 1862.82 218.879 Q1859.25 218.879 1857.1 220.893 Q1854.97 222.907 1854.65 226.565 L1869.83 226.541 Z" fill="#000000" fill-rule="nonzero" fill-opacity="1" /><defs>
  <pattern id="pattern4" patternUnits="userSpaceOnUse" x="0" y="0" width="32" height="32">
<g transform="scale(4)"><path d="M-4,4 l8,-8 M4,12 l8,-8 M-4,12 l16,-16" style="stroke:#000000; stroke-width:1; stroke-opacity:1"/></g></pattern>
</defs>
<path clip-path="url(#clip570)" d="M1105.06 297.115 L1223.06 297.115 L1223.06 255.643 L1105.06 255.643 L1105.06 297.115  Z" fill="url(#pattern4)"/>
<polyline clip-path="url(#clip570)" style="stroke:#000000; stroke-linecap:round; stroke-linejoin:round; stroke-width:2; stroke-opacity:1; fill:none" points="1105.06,297.115 1223.06,297.115 1223.06,255.643 1105.06,255.643 1105.06,297.115 "/>
<path clip-path="url(#clip570)" d="M1242.73 259.099 L1247.4 259.099 L1247.4 293.659 L1242.73 293.659 L1242.73 259.099 Z" fill="#000000" fill-rule="nonzero" fill-opacity="1" /><path clip-path="url(#clip570)" d="M1278.07 278.011 L1278.07 293.659 L1273.81 293.659 L1273.81 278.15 Q1273.81 274.469 1272.38 272.641 Q1270.94 270.812 1268.07 270.812 Q1264.63 270.812 1262.63 273.011 Q1260.64 275.21 1260.64 279.006 L1260.64 293.659 L1256.36 293.659 L1256.36 267.733 L1260.64 267.733 L1260.64 271.761 Q1262.17 269.423 1264.23 268.266 Q1266.31 267.108 1269.02 267.108 Q1273.49 267.108 1275.78 269.886 Q1278.07 272.641 1278.07 278.011 Z" fill="#000000" fill-rule="nonzero" fill-opacity="1" /><path clip-path="url(#clip570)" d="M1290.78 260.372 L1290.78 267.733 L1299.56 267.733 L1299.56 271.044 L1290.78 271.044 L1290.78 285.118 Q1290.78 288.289 1291.64 289.192 Q1292.52 290.094 1295.18 290.094 L1299.56 290.094 L1299.56 293.659 L1295.18 293.659 Q1290.25 293.659 1288.37 291.83 Q1286.5 289.979 1286.5 285.118 L1286.5 271.044 L1283.37 271.044 L1283.37 267.733 L1286.5 267.733 L1286.5 260.372 L1290.78 260.372 Z" fill="#000000" fill-rule="nonzero" fill-opacity="1" /><path clip-path="url(#clip570)" d="M1327.33 279.631 L1327.33 281.715 L1307.75 281.715 Q1308.03 286.113 1310.39 288.428 Q1312.77 290.719 1317.01 290.719 Q1319.46 290.719 1321.75 290.118 Q1324.07 289.516 1326.34 288.312 L1326.34 292.34 Q1324.05 293.312 1321.64 293.821 Q1319.23 294.33 1316.75 294.33 Q1310.55 294.33 1306.92 290.719 Q1303.31 287.108 1303.31 280.951 Q1303.31 274.585 1306.73 270.858 Q1310.18 267.108 1316.01 267.108 Q1321.25 267.108 1324.28 270.488 Q1327.33 273.844 1327.33 279.631 M1323.07 278.381 Q1323.03 274.886 1321.11 272.803 Q1319.21 270.719 1316.06 270.719 Q1312.5 270.719 1310.34 272.733 Q1308.21 274.747 1307.89 278.405 L1323.07 278.381 Z" fill="#000000" fill-rule="nonzero" fill-opacity="1" /><path clip-path="url(#clip570)" d="M1351.38 280.395 Q1351.38 275.766 1349.46 273.219 Q1347.56 270.673 1344.12 270.673 Q1340.69 270.673 1338.77 273.219 Q1336.87 275.766 1336.87 280.395 Q1336.87 285.002 1338.77 287.548 Q1340.69 290.094 1344.12 290.094 Q1347.56 290.094 1349.46 287.548 Q1351.38 285.002 1351.38 280.395 M1355.64 290.442 Q1355.64 297.062 1352.7 300.279 Q1349.76 303.52 1343.7 303.52 Q1341.45 303.52 1339.46 303.173 Q1337.47 302.849 1335.6 302.154 L1335.6 298.011 Q1337.47 299.029 1339.3 299.516 Q1341.13 300.002 1343.03 300.002 Q1347.22 300.002 1349.3 297.803 Q1351.38 295.627 1351.38 291.205 L1351.38 289.099 Q1350.06 291.391 1348 292.525 Q1345.94 293.659 1343.07 293.659 Q1338.31 293.659 1335.39 290.025 Q1332.47 286.391 1332.47 280.395 Q1332.47 274.377 1335.39 270.743 Q1338.31 267.108 1343.07 267.108 Q1345.94 267.108 1348 268.243 Q1350.06 269.377 1351.38 271.669 L1351.38 267.733 L1355.64 267.733 L1355.64 290.442 Z" fill="#000000" fill-rule="nonzero" fill-opacity="1" /><path clip-path="url(#clip570)" d="M1379.44 271.715 Q1378.72 271.298 1377.87 271.113 Q1377.03 270.905 1376.01 270.905 Q1372.4 270.905 1370.46 273.266 Q1368.54 275.604 1368.54 280.002 L1368.54 293.659 L1364.25 293.659 L1364.25 267.733 L1368.54 267.733 L1368.54 271.761 Q1369.88 269.4 1372.03 268.266 Q1374.18 267.108 1377.26 267.108 Q1377.7 267.108 1378.24 267.178 Q1378.77 267.224 1379.42 267.34 L1379.44 271.715 Z" fill="#000000" fill-rule="nonzero" fill-opacity="1" /><path clip-path="url(#clip570)" d="M1395.69 280.627 Q1390.53 280.627 1388.54 281.807 Q1386.55 282.988 1386.55 285.835 Q1386.55 288.104 1388.03 289.446 Q1389.53 290.766 1392.1 290.766 Q1395.64 290.766 1397.77 288.266 Q1399.93 285.743 1399.93 281.576 L1399.93 280.627 L1395.69 280.627 M1404.18 278.868 L1404.18 293.659 L1399.93 293.659 L1399.93 289.724 Q1398.47 292.085 1396.29 293.219 Q1394.12 294.33 1390.97 294.33 Q1386.99 294.33 1384.62 292.108 Q1382.29 289.863 1382.29 286.113 Q1382.29 281.738 1385.2 279.516 Q1388.14 277.294 1393.95 277.294 L1399.93 277.294 L1399.93 276.877 Q1399.93 273.937 1397.98 272.34 Q1396.06 270.719 1392.56 270.719 Q1390.34 270.719 1388.24 271.252 Q1386.13 271.784 1384.18 272.849 L1384.18 268.914 Q1386.52 268.011 1388.72 267.571 Q1390.92 267.108 1393 267.108 Q1398.63 267.108 1401.41 270.025 Q1404.18 272.942 1404.18 278.868 Z" fill="#000000" fill-rule="nonzero" fill-opacity="1" /><path clip-path="url(#clip570)" d="M1417.17 260.372 L1417.17 267.733 L1425.94 267.733 L1425.94 271.044 L1417.17 271.044 L1417.17 285.118 Q1417.17 288.289 1418.03 289.192 Q1418.91 290.094 1421.57 290.094 L1425.94 290.094 L1425.94 293.659 L1421.57 293.659 Q1416.64 293.659 1414.76 291.83 Q1412.89 289.979 1412.89 285.118 L1412.89 271.044 L1409.76 271.044 L1409.76 267.733 L1412.89 267.733 L1412.89 260.372 L1417.17 260.372 Z" fill="#000000" fill-rule="nonzero" fill-opacity="1" /><path clip-path="url(#clip570)" d="M1453.72 279.631 L1453.72 281.715 L1434.14 281.715 Q1434.42 286.113 1436.78 288.428 Q1439.16 290.719 1443.4 290.719 Q1445.85 290.719 1448.14 290.118 Q1450.46 289.516 1452.73 288.312 L1452.73 292.34 Q1450.43 293.312 1448.03 293.821 Q1445.62 294.33 1443.14 294.33 Q1436.94 294.33 1433.3 290.719 Q1429.69 287.108 1429.69 280.951 Q1429.69 274.585 1433.12 270.858 Q1436.57 267.108 1442.4 267.108 Q1447.63 267.108 1450.67 270.488 Q1453.72 273.844 1453.72 279.631 M1449.46 278.381 Q1449.42 274.886 1447.49 272.803 Q1445.6 270.719 1442.45 270.719 Q1438.88 270.719 1436.73 272.733 Q1434.6 274.747 1434.28 278.405 L1449.46 278.381 Z" fill="#000000" fill-rule="nonzero" fill-opacity="1" /><path clip-path="url(#clip570)" d="M1477.77 271.669 L1477.77 257.641 L1482.03 257.641 L1482.03 293.659 L1477.77 293.659 L1477.77 289.77 Q1476.43 292.085 1474.37 293.219 Q1472.33 294.33 1469.46 294.33 Q1464.76 294.33 1461.8 290.58 Q1458.86 286.83 1458.86 280.719 Q1458.86 274.608 1461.8 270.858 Q1464.76 267.108 1469.46 267.108 Q1472.33 267.108 1474.37 268.243 Q1476.43 269.354 1477.77 271.669 M1463.26 280.719 Q1463.26 285.418 1465.18 288.104 Q1467.12 290.766 1470.5 290.766 Q1473.88 290.766 1475.83 288.104 Q1477.77 285.418 1477.77 280.719 Q1477.77 276.02 1475.83 273.358 Q1473.88 270.673 1470.5 270.673 Q1467.12 270.673 1465.18 273.358 Q1463.26 276.02 1463.26 280.719 Z" fill="#000000" fill-rule="nonzero" fill-opacity="1" /><path clip-path="url(#clip570)" d="M1522.93 280.395 Q1522.93 275.766 1521.01 273.219 Q1519.11 270.673 1515.67 270.673 Q1512.24 270.673 1510.32 273.219 Q1508.42 275.766 1508.42 280.395 Q1508.42 285.002 1510.32 287.548 Q1512.24 290.094 1515.67 290.094 Q1519.11 290.094 1521.01 287.548 Q1522.93 285.002 1522.93 280.395 M1527.19 290.442 Q1527.19 297.062 1524.25 300.279 Q1521.31 303.52 1515.25 303.52 Q1513 303.52 1511.01 303.173 Q1509.02 302.849 1507.15 302.154 L1507.15 298.011 Q1509.02 299.029 1510.85 299.516 Q1512.68 300.002 1514.58 300.002 Q1518.77 300.002 1520.85 297.803 Q1522.93 295.627 1522.93 291.205 L1522.93 289.099 Q1521.61 291.391 1519.55 292.525 Q1517.49 293.659 1514.62 293.659 Q1509.86 293.659 1506.94 290.025 Q1504.02 286.391 1504.02 280.395 Q1504.02 274.377 1506.94 270.743 Q1509.86 267.108 1514.62 267.108 Q1517.49 267.108 1519.55 268.243 Q1521.61 269.377 1522.93 271.669 L1522.93 267.733 L1527.19 267.733 L1527.19 290.442 Z" fill="#000000" fill-rule="nonzero" fill-opacity="1" /><path clip-path="url(#clip570)" d="M1550.99 271.715 Q1550.27 271.298 1549.42 271.113 Q1548.58 270.905 1547.56 270.905 Q1543.95 270.905 1542.01 273.266 Q1540.09 275.604 1540.09 280.002 L1540.09 293.659 L1535.8 293.659 L1535.8 267.733 L1540.09 267.733 L1540.09 271.761 Q1541.43 269.4 1543.58 268.266 Q1545.73 267.108 1548.81 267.108 Q1549.25 267.108 1549.79 267.178 Q1550.32 267.224 1550.97 267.34 L1550.99 271.715 Z" fill="#000000" fill-rule="nonzero" fill-opacity="1" /><path clip-path="url(#clip570)" d="M1567.24 280.627 Q1562.08 280.627 1560.09 281.807 Q1558.1 282.988 1558.1 285.835 Q1558.1 288.104 1559.58 289.446 Q1561.08 290.766 1563.65 290.766 Q1567.19 290.766 1569.32 288.266 Q1571.48 285.743 1571.48 281.576 L1571.48 280.627 L1567.24 280.627 M1575.73 278.868 L1575.73 293.659 L1571.48 293.659 L1571.48 289.724 Q1570.02 292.085 1567.84 293.219 Q1565.67 294.33 1562.52 294.33 Q1558.54 294.33 1556.17 292.108 Q1553.84 289.863 1553.84 286.113 Q1553.84 281.738 1556.75 279.516 Q1559.69 277.294 1565.5 277.294 L1571.48 277.294 L1571.48 276.877 Q1571.48 273.937 1569.53 272.34 Q1567.61 270.719 1564.11 270.719 Q1561.89 270.719 1559.79 271.252 Q1557.68 271.784 1555.73 272.849 L1555.73 268.914 Q1558.07 268.011 1560.27 267.571 Q1562.47 267.108 1564.55 267.108 Q1570.18 267.108 1572.96 270.025 Q1575.73 272.942 1575.73 278.868 Z" fill="#000000" fill-rule="nonzero" fill-opacity="1" /><path clip-path="url(#clip570)" d="M1601.57 271.669 L1601.57 257.641 L1605.83 257.641 L1605.83 293.659 L1601.57 293.659 L1601.57 289.77 Q1600.23 292.085 1598.16 293.219 Q1596.13 294.33 1593.26 294.33 Q1588.56 294.33 1585.6 290.58 Q1582.66 286.83 1582.66 280.719 Q1582.66 274.608 1585.6 270.858 Q1588.56 267.108 1593.26 267.108 Q1596.13 267.108 1598.16 268.243 Q1600.23 269.354 1601.57 271.669 M1587.05 280.719 Q1587.05 285.418 1588.98 288.104 Q1590.92 290.766 1594.3 290.766 Q1597.68 290.766 1599.62 288.104 Q1601.57 285.418 1601.57 280.719 Q1601.57 276.02 1599.62 273.358 Q1597.68 270.673 1594.3 270.673 Q1590.92 270.673 1588.98 273.358 Q1587.05 276.02 1587.05 280.719 Z" fill="#000000" fill-rule="nonzero" fill-opacity="1" /><path clip-path="url(#clip570)" d="M1614.6 267.733 L1618.86 267.733 L1618.86 293.659 L1614.6 293.659 L1614.6 267.733 M1614.6 257.641 L1618.86 257.641 L1618.86 263.034 L1614.6 263.034 L1614.6 257.641 Z" fill="#000000" fill-rule="nonzero" fill-opacity="1" /><path clip-path="url(#clip570)" d="M1649.95 279.631 L1649.95 281.715 L1630.36 281.715 Q1630.64 286.113 1633 288.428 Q1635.39 290.719 1639.62 290.719 Q1642.08 290.719 1644.37 290.118 Q1646.68 289.516 1648.95 288.312 L1648.95 292.34 Q1646.66 293.312 1644.25 293.821 Q1641.85 294.33 1639.37 294.33 Q1633.16 294.33 1629.53 290.719 Q1625.92 287.108 1625.92 280.951 Q1625.92 274.585 1629.35 270.858 Q1632.79 267.108 1638.63 267.108 Q1643.86 267.108 1646.89 270.488 Q1649.95 273.844 1649.95 279.631 M1645.69 278.381 Q1645.64 274.886 1643.72 272.803 Q1641.82 270.719 1638.67 270.719 Q1635.11 270.719 1632.96 272.733 Q1630.83 274.747 1630.5 278.405 L1645.69 278.381 Z" fill="#000000" fill-rule="nonzero" fill-opacity="1" /><path clip-path="url(#clip570)" d="M1678.49 278.011 L1678.49 293.659 L1674.23 293.659 L1674.23 278.15 Q1674.23 274.469 1672.79 272.641 Q1671.36 270.812 1668.49 270.812 Q1665.04 270.812 1663.05 273.011 Q1661.06 275.21 1661.06 279.006 L1661.06 293.659 L1656.78 293.659 L1656.78 267.733 L1661.06 267.733 L1661.06 271.761 Q1662.59 269.423 1664.65 268.266 Q1666.73 267.108 1669.44 267.108 Q1673.91 267.108 1676.2 269.886 Q1678.49 272.641 1678.49 278.011 Z" fill="#000000" fill-rule="nonzero" fill-opacity="1" /><path clip-path="url(#clip570)" d="M1691.2 260.372 L1691.2 267.733 L1699.97 267.733 L1699.97 271.044 L1691.2 271.044 L1691.2 285.118 Q1691.2 288.289 1692.05 289.192 Q1692.93 290.094 1695.6 290.094 L1699.97 290.094 L1699.97 293.659 L1695.6 293.659 Q1690.66 293.659 1688.79 291.83 Q1686.91 289.979 1686.91 285.118 L1686.91 271.044 L1683.79 271.044 L1683.79 267.733 L1686.91 267.733 L1686.91 260.372 L1691.2 260.372 Z" fill="#000000" fill-rule="nonzero" fill-opacity="1" /></svg>
